<svg width="2030" height="901" viewBox="0 0 2030 901" fill="none" xmlns="http://www.w3.org/2000/svg">
<path d="M1081 138.777C1090.16 138.864 1098.86 137.553 1107.36 140.724C1118.3 144.806 1124.2 161.751 1116.56 170.21C1113.6 173.474 1107.74 174.469 1103 175.66C1096.89 177.193 1090.57 177.911 1084.34 178.928C1080.27 179.592 1076.16 180.074 1072.11 180.835C1071.01 181.043 1070.03 181.961 1069 182.553C1069.72 183.628 1070.19 185.117 1071.19 185.714C1085.78 194.406 1095.24 207.712 1104.03 221.69C1108.3 228.466 1112.88 235.041 1117.4 241.658C1123.13 250.054 1127.89 258.809 1130.13 268.911C1131.18 273.663 1132.79 278.704 1135.58 282.58C1143.13 293.066 1148.23 304.175 1150.31 317.103C1151.3 323.236 1155.49 328.891 1158.42 334.662C1163.4 344.442 1168.36 354.236 1173.65 363.848C1178.24 372.18 1179.96 381.314 1182.01 390.395C1184.31 400.601 1186.59 410.815 1189.03 420.989C1190.9 428.793 1193.68 429.837 1202.83 427.546C1208.18 426.207 1213.71 425.371 1219.2 424.859C1225.08 424.311 1226.78 422.004 1228.19 416.492C1230.56 407.214 1225.48 399.107 1225.39 390.444C1225.3 382.085 1222.02 374.807 1219.99 367.09C1217.51 357.625 1214.38 348.281 1212.65 338.682C1211.5 332.309 1212.28 325.581 1212.3 319.013C1212.3 317.781 1212.95 316.551 1212.97 315.317C1213.04 308.261 1212.51 301.161 1213.12 294.157C1213.98 284.167 1215.83 274.265 1216.88 264.286C1217.21 261.162 1216.12 257.917 1216.04 254.718C1215.76 243.406 1224 228.214 1237.21 224.734C1241.23 223.675 1245.12 222.113 1249.06 220.776C1252.29 219.682 1253.75 216.295 1251.96 213.1C1246.74 203.814 1244.43 193.501 1243.48 183.254C1243.09 179.043 1240.66 175.007 1241.3 171.519C1243.2 161.211 1243.24 150.499 1250.51 141.303C1256.7 133.455 1264.48 129.289 1273.17 125.784C1273.31 125.726 1273.55 125.846 1273.66 125.767C1280.31 120.908 1288.38 122.066 1295.79 120.966C1308.56 119.07 1320.97 127.358 1324.95 139.55C1326.92 145.593 1328.72 151.749 1329.84 157.989C1330.42 161.188 1329.98 164.928 1328.83 167.984C1327.44 171.69 1328.9 173.787 1330.94 176.438C1335.4 182.26 1335.42 188.558 1332.25 195.094C1330.7 198.271 1329.47 201.617 1328.35 204.973C1326.67 210.023 1329.38 213.772 1334.52 213.775C1342.58 213.78 1350.69 214.381 1358.68 213.635C1370.7 212.512 1382.6 209.645 1394.63 208.995C1407.36 208.308 1420.67 206.862 1432.06 214.876C1436.07 217.7 1439.97 221.207 1442.67 225.24C1446.06 230.303 1443.99 236.298 1441.82 241.236C1436.86 252.526 1428.8 261.037 1417.07 265.846C1411.24 268.234 1410.11 272.011 1413.85 276.993C1420.24 285.494 1423.96 294.839 1425.12 305.387C1425.38 307.744 1427.04 310.09 1430.27 308.01C1443.65 299.407 1456.61 290.392 1467.72 278.766C1476.19 269.901 1485.26 261.501 1494.79 253.787C1501.14 248.639 1509.23 245.645 1515.71 240.615C1522.46 235.369 1528.93 229.39 1534.16 222.667C1537.56 218.289 1535.16 212.366 1533.04 207.248C1530.68 201.538 1529.17 195.829 1530.66 189.326C1531.44 185.913 1527.89 183.938 1524.54 182.686C1522.2 181.809 1518.88 180.459 1518.35 178.637C1517.77 176.641 1519.24 173.137 1520.97 171.551C1527.2 165.851 1529.75 159.302 1530.42 150.741C1530.9 144.491 1534.63 138.187 1537.98 132.545C1541.67 126.353 1545.53 120.446 1544.95 112.927C1544.54 107.469 1551.5 101.934 1559.83 100.743C1570.49 99.2159 1581.08 97.0806 1591.77 95.8763C1602.99 94.6133 1613.28 97.3584 1621.88 105.141C1624.77 107.75 1627.59 110.492 1630.75 112.722C1637.03 117.14 1643.66 113.705 1651.41 108.816C1656.05 105.894 1657.16 101.707 1655.01 96.6508C1654.46 95.3767 1653.97 94.0797 1653.5 92.7738C1651.2 86.2864 1651.21 86.2842 1644.16 87.7766C1639.93 88.6707 1636.72 86.7164 1636.05 82.3747C1635.18 76.6833 1634.42 70.9508 1634.06 65.2079C1633.51 56.5268 1633.81 47.7696 1632.86 39.1419C1631.99 31.1942 1634.97 25.1225 1639.82 19.4503C1645.52 12.7833 1651.86 6.87137 1660.25 3.80435C1680.34 -3.53366 1701.87 -1.70426 1712.85 22.2642C1717.72 32.8779 1721.13 44.1722 1724.93 55.2486C1726.35 59.3593 1727.27 63.6895 1727.92 67.9943C1728.55 72.118 1726.34 74.9274 1722.68 76.8233C1721.01 77.6892 1719.23 78.7928 1718.18 80.2749C1717.14 81.7591 1715.94 84.6024 1716.61 85.5177C1718 87.4066 1720.7 89.7153 1722.68 89.5613C1734.16 88.6687 1745.57 86.7761 1757.05 85.8805C1766.52 85.1416 1776.06 84.3374 1785.41 87.7021C1794.61 91.0105 1802.26 103.766 1798.72 112.701C1797.16 116.668 1792.85 119.757 1789.33 122.683C1786.36 125.138 1782.68 126.708 1779.41 128.811C1778.14 129.625 1777.13 130.827 1776 131.853C1777.35 132.827 1778.56 134.147 1780.06 134.719C1788.12 137.796 1796.31 140.563 1804.35 143.678C1812.68 146.901 1821 150.175 1829.13 153.87C1833.21 155.729 1837.23 158.134 1840.61 161.059C1847.34 166.875 1853.47 173.389 1860.15 179.262C1862.53 181.35 1865.64 183.043 1868.7 183.829C1878.02 186.225 1882.65 193.525 1888.13 200.408C1894.79 208.78 1900.79 217.609 1909.09 224.85C1917.85 232.483 1924.72 242.457 1927.78 253.912C1929.94 262.014 1928.39 270.593 1925.62 278.542C1922.78 286.675 1919.29 294.58 1915.99 302.547C1912.69 310.513 1909.92 318.789 1905.76 326.291C1898.61 339.215 1891.12 351.918 1881.35 363.285C1874.34 371.438 1868.58 380.837 1863.44 390.316C1861.69 393.538 1862.77 398.897 1863.85 402.938C1866.37 412.41 1863.99 420.515 1857.74 427.394C1849.36 436.626 1841.35 446.037 1835.99 457.42C1833.71 462.254 1835.06 466.336 1840.07 468.297C1853.55 473.58 1867.09 478.706 1880.61 483.883C1885.28 485.67 1889.93 486.799 1894.96 484.895C1896.18 484.431 1898.1 485.167 1899.48 485.82C1911.74 491.637 1924.1 497.26 1936.13 503.528C1950.72 511.13 1965.18 519.064 1977.68 529.974C1986.14 537.356 1994.91 544.439 2002.88 552.326C2015.27 564.595 2024.46 579.131 2027.78 596.41C2029.45 605.11 2031.22 614.581 2026.85 623.044C2023.41 629.697 2019.05 636.018 2014.29 641.821C2002.32 656.407 1986.67 666.192 1970.27 675.176C1943.6 689.784 1915.34 700.345 1886.57 709.732C1865.71 716.54 1844.79 723.205 1823.74 729.436C1802.03 735.863 1780.21 741.943 1758.32 747.708C1734.38 754.01 1710.35 759.96 1686.28 765.727C1660.32 771.947 1634.3 777.954 1608.23 783.7C1595.63 786.477 1582.81 788.254 1570.16 790.828C1556.53 793.601 1543.02 797.004 1529.37 799.708C1517.59 802.04 1505.68 803.643 1493.87 805.812C1480.43 808.282 1467.06 811.122 1453.62 813.615C1443.53 815.488 1433.36 816.98 1423.26 818.799C1411.03 821.001 1398.85 823.506 1386.6 825.622C1377.38 827.217 1368.07 828.372 1358.81 829.787C1350.36 831.079 1341.91 832.403 1333.48 833.814C1326.02 835.062 1318.58 836.477 1311.13 837.77C1299.62 839.767 1288.11 841.818 1276.58 843.662C1269.03 844.868 1261.42 845.638 1253.86 846.805C1244.49 848.252 1235.17 849.98 1225.8 851.446C1219.97 852.357 1214.09 852.909 1208.26 853.799C1199.19 855.184 1190.14 856.715 1181.09 858.19C1171.72 859.715 1162.36 861.262 1152.99 862.772C1144.08 864.209 1135.16 865.617 1126.25 867.024C1118.27 868.284 1110.29 869.533 1102.3 870.775C1092.13 872.359 1081.95 873.974 1071.76 875.494C1066.09 876.34 1060.39 876.978 1054.71 877.786C1045.59 879.083 1036.49 880.541 1027.36 881.748C1018.79 882.881 1010.18 883.672 1001.61 884.805C992.48 886.012 983.396 887.579 974.259 888.733C967.23 889.62 960.142 890.034 953.096 890.794C941.308 892.065 929.539 893.504 917.749 894.747C912.906 895.258 908.03 895.47 903.166 895.771C892.11 896.455 881.054 897.137 869.995 897.769C857.774 898.468 845.556 899.489 833.324 899.703C801.634 900.256 769.938 900.536 738.242 900.718C729.216 900.769 720.182 900.193 711.159 899.756C699.098 899.172 687.038 898.536 674.989 897.752C661.23 896.858 647.484 895.775 633.731 894.777C624.508 894.108 615.284 893.446 606.061 892.776C592.309 891.778 578.557 890.775 564.805 889.777C555.581 889.108 546.359 888.428 537.134 887.78C522.716 886.767 508.29 885.86 493.88 884.75C482.618 883.883 471.368 882.841 460.124 881.76C447.003 880.498 433.826 879.573 420.796 877.669C400.784 874.745 380.761 871.671 360.958 867.611C342.828 863.894 324.847 859.259 307.053 854.149C290.893 849.509 275.095 843.617 259.098 838.398C241.037 832.506 223.083 826.117 206.678 816.565C194.581 809.522 183.354 800.877 172.241 792.296C165.491 787.083 159.417 780.898 153.526 774.689C141.782 762.311 131.827 748.532 123.463 733.667C118.079 724.1 112.789 714.451 108.079 704.543C100.235 688.042 93.693 670.989 90.0884 653.02C87.9395 642.307 86.8382 631.389 84.9552 620.618C82.7656 608.093 84.8578 595.754 85.9342 583.348C86.0776 581.695 85.8165 579.508 84.8139 578.44C84.1991 577.785 81.7171 578.531 80.242 579.091C67.4705 583.941 54.8487 582.332 42.2126 578.508C28.1771 574.26 15.7015 567.087 4.10393 558.291C2.47073 557.053 1.35512 555.132 0 553.526C2.10016 552.276 4.05851 550.367 6.32266 549.88C26.2179 545.605 44.6027 537.535 61.9172 527.179C75.7573 518.9 88.9431 509.534 102.512 500.795C123.693 487.154 144.79 473.351 167.761 462.785C183.972 455.329 200.596 449.024 218.227 445.847C222.671 445.046 227.273 445.135 231.799 444.77C236.609 444.382 237.844 442.264 236.034 437.913C235.384 436.349 235.213 434.594 234.679 432.974C230.472 420.218 225.671 407.627 222.148 394.687C218.171 380.077 215.497 365.117 211.923 350.39C210.388 344.066 210.244 337.851 213.135 332.184C215.976 326.616 219.872 321.987 225.587 318.346C238.958 309.827 255.213 309.433 268.782 301.799C277.282 297.017 286.008 292.63 294.456 287.761C309.479 279.102 324.15 269.759 341.392 265.86C345.484 264.934 349.686 264.173 353.544 262.612C361.749 259.292 364.46 251.968 365.997 244.015C366.683 240.462 366.701 236.603 368.194 233.436C369.453 230.765 372.287 228.756 374.648 226.713C376.412 225.187 378.654 224.222 380.468 222.743C382.929 220.737 383.313 218.299 382.026 215.219C378.555 206.918 377.533 199.177 383.079 190.576C386.053 185.965 385.397 178.878 385.951 172.869C387.305 158.202 391.102 144.522 402.243 134.136C413.246 123.878 426.048 116.81 441.201 114.816C448.06 113.914 455.092 112.308 461.844 112.996C479.826 114.829 487.281 122.397 489.002 139.721C489.654 146.279 490.841 152.835 490.846 159.392C490.851 165.087 489.417 170.772 488.834 176.483C488.383 180.911 488.059 185.376 488.126 189.818C488.146 191.149 489.359 193.039 490.557 193.685C500.205 198.879 510.349 202.84 521.368 203.73C536.105 204.919 550.893 205.51 565.611 206.877C574.301 207.685 582.987 209.005 590.748 213.731C596.811 217.423 601.703 224.999 599.893 229.936C597.593 236.21 593.224 241.01 587.614 244.847C582.249 248.516 576.137 249.288 570.129 249.64C557.967 250.353 545.871 249.289 533.857 246.895C528.636 245.855 523.14 246.28 517.802 245.717C514.235 245.341 510.093 246.868 510.469 249.463C510.863 252.182 514.649 254.968 517.582 256.584C519.918 257.871 523.226 257.303 526.05 257.834C527.528 258.112 529.577 258.584 530.202 259.651C534.924 267.714 544.348 268.392 551.102 273.226C554.457 275.628 558.098 276.712 558.3 282.248C558.453 286.446 561.905 290.416 562.875 294.716C564.647 302.564 565.784 310.565 566.961 318.536C567.826 324.397 568.701 330.3 568.87 336.205C568.983 340.115 567.594 344.046 567.37 347.995C567.192 351.127 567.353 354.398 568.068 357.442C572.094 374.581 577.163 391.526 580.193 408.832C582.037 419.364 580.714 430.432 581.076 441.25C581.294 447.771 581.295 454.432 582.671 460.752C585 471.451 586.026 482.038 584.001 492.841C583.07 497.812 584.941 500.713 590.627 501.701C598.159 503.009 605.795 503.706 613.368 504.794C624.52 506.395 635.642 508.207 646.803 509.739C653.165 510.613 659.582 511.076 665.968 511.784C677.752 513.091 689.525 514.491 701.313 515.752C705.826 516.235 710.363 516.542 714.898 516.747C718.828 516.924 720.547 514.738 719.942 509.924C719.434 505.883 718.142 501.936 717.697 497.893C717.199 493.359 717.231 488.764 717.126 484.193C717.113 483.66 718.098 482.875 717.941 482.609C713.875 475.727 721.447 469.18 718.345 461.913C717.205 459.241 719.783 454.808 721.074 451.331C721.98 448.889 723.673 446.752 724.853 444.398C728.267 437.583 724.483 433.918 718.832 431.901C714.3 430.284 709.41 429.315 704.608 428.917C700.469 428.574 696.226 429.407 692.035 429.785C684.975 430.422 677.927 431.524 670.861 431.634C665.982 431.71 661.073 430.504 656.202 429.716C655.401 429.586 654.018 428.347 654.109 428.137C655.186 425.627 655.865 422.081 657.851 420.985C664.301 417.427 671.007 413.873 678.061 411.975C690.599 408.601 703.443 406.338 716.201 403.821C722.57 402.565 729.048 400.888 735.445 401.013C742.648 401.154 749.935 402.628 756.973 404.38C769.795 407.572 782.781 408.232 795.49 405.507C804.298 403.619 812.774 400.157 820.417 394.362C825.995 390.133 833.494 388.321 840.287 385.846C845.805 383.836 851.541 382.421 857.192 380.783C862.681 379.192 864.094 373.436 859.912 366.749C856.309 360.986 851.932 355.708 847.926 350.194C844.674 345.718 839.595 342.811 837.788 336.959C836.964 334.294 833.674 332.47 831.831 330.018C830.061 327.664 828.526 325.086 827.219 322.443C823.116 314.15 818.224 306.075 815.496 297.336C813.676 291.509 814.724 284.677 815.05 278.324C815.327 272.915 819.69 270.241 823.729 267.531C829.996 263.326 836.573 259.484 842.374 254.707C849.809 248.585 849.863 240.347 846.659 231.991C842.581 221.352 838.36 210.762 833.896 200.281C832.255 196.428 829.381 195.361 824.682 196.308C817.984 197.657 810.524 198.953 804.215 197.237C799.767 196.028 795.175 190.354 793.384 185.635C791.147 179.743 794.34 174.327 800.243 170.679C807.4 166.256 812.382 160.272 815.273 151.744C819.438 139.459 827.173 129.192 839.661 123.845C848.009 120.271 856.401 115.996 865.196 114.47C877.064 112.41 889.31 111.632 900.363 119.414C906.759 123.918 909.042 130.237 910.97 137.023C913.333 145.34 911.236 153.293 909.139 161.393C907.43 167.999 907.004 174.901 911.627 180.949C912.265 181.785 912.694 182.852 912.974 183.878C913.884 187.219 913.983 192.009 917.768 192.46C921.515 192.907 925.867 191.381 929.414 189.628C934.171 187.278 930.955 182.57 930.736 179.266C930.139 170.27 925.269 161.364 931.589 152.425C932.621 150.964 932.069 147.932 931.473 145.849C928.58 135.736 924.549 125.861 922.646 115.582C921.225 107.909 921.494 99.6019 922.716 91.8458C924.126 82.8883 932.144 78.7541 939.642 75.9666C953.129 70.9527 967.4 69.9326 981.461 72.9527C991.762 75.1653 999.566 81.844 1004.97 90.9556C1009.93 99.3062 1012.2 108.464 1013.21 118.104C1013.42 120.135 1015.94 122.956 1017.96 123.581C1024.57 125.626 1025.59 127.82 1021.57 133.722C1019.99 136.05 1018.17 138.306 1017.08 140.86C1015.43 144.732 1016.75 146.695 1021.1 146.7C1025.79 146.706 1030.51 146.311 1035.18 145.728C1041.62 144.922 1048.02 143.769 1054.44 142.778C1063.13 141.438 1071.81 140.11 1081 138.777ZM338 355.277C319.937 364.998 301.245 372.557 280.276 372.862C276.574 372.916 274.019 376.742 275.05 380.032C276.569 384.881 277.999 389.832 280.216 394.374C287.012 408.303 291.934 422.573 291.064 438.397C290.758 443.951 294.871 447.65 300.332 447.804C308.526 448.034 316.727 448.281 324.904 448.839C329.649 449.163 334.345 450.158 339.075 450.761C342.765 451.232 346.626 448.003 345.764 445.239C342.233 433.911 345.059 422.366 343.91 411.009C343.458 406.537 342.692 401.846 340.833 397.826C338.25 392.24 338.624 387.265 340.951 381.891C343.15 376.809 345.206 371.632 346.84 366.346C348.808 359.983 345.18 355.218 338 355.277ZM1827 283.277C1831.06 292.074 1832.59 301.192 1829.95 310.662C1828.66 315.318 1830.15 319.42 1831.38 323.75C1832.87 329 1834.42 334.356 1834.85 339.754C1835.44 347.089 1834.95 354.508 1835.07 361.889C1835.08 362.856 1835.99 363.809 1836.49 364.768C1837.3 364.303 1838.34 364.024 1838.86 363.342C1841.54 359.82 1844.62 356.461 1846.56 352.551C1851.02 343.602 1855.58 334.604 1858.85 325.194C1864.68 308.427 1869.61 291.347 1874.87 274.382C1875.82 271.311 1874.77 268.815 1871.63 267.974C1864.92 266.181 1859.92 261.962 1855.01 257.368C1850.29 252.942 1845.43 248.607 1840.28 244.69C1836.01 241.44 1834.99 242.046 1832.98 247.122C1831.96 249.695 1830.67 252.158 1829.58 254.706C1825.78 263.615 1824.66 272.787 1827 283.277ZM1138 371.277C1132.59 362.534 1127.22 353.769 1121.72 345.083C1121.19 344.249 1119.89 343.902 1118.95 343.329C1118.79 344.798 1118.32 346.308 1118.51 347.731C1119.23 353.056 1120.31 358.334 1120.95 363.666C1121.51 368.327 1121.44 373.067 1122.06 377.716C1122.81 383.327 1124.87 388.884 1124.83 394.453C1124.73 407.87 1124.97 421.062 1129.89 433.863C1132.14 439.73 1134.71 441.612 1140.75 439.8C1143.43 438.996 1146.17 438.37 1148.9 437.792C1154.45 436.62 1155.39 434.925 1154.03 429.253C1151.92 420.456 1150.3 411.531 1147.92 402.81C1145.08 392.383 1141.67 382.114 1138 371.277ZM1443 394.277C1443.67 396.332 1444.26 398.415 1445.02 400.438C1446.27 403.79 1446.78 407.718 1451.8 407.809C1464.99 408.047 1478.17 408.44 1491.36 408.779C1493.82 408.843 1496.29 408.953 1498.75 409.023C1499.83 409.054 1500.92 409.04 1502 409.046C1501.3 407.956 1500.85 406.374 1499.85 405.864C1496.15 403.977 1492.42 401.776 1488.44 400.933C1482.46 399.666 1476.26 399.349 1470.13 398.867C1469.08 398.784 1467.94 399.897 1466.83 400.441C1465.56 401.065 1464.28 401.67 1463.01 402.283C1462.92 400.695 1462.7 399.099 1462.78 397.519C1463.08 392.046 1464.87 386.186 1463.46 381.215C1461.88 375.613 1461.75 370.818 1463.66 365.57C1465.46 360.644 1467.09 355.649 1468.57 350.619C1468.93 349.404 1468.9 347.242 1468.19 346.745C1467.17 346.033 1465.29 346.148 1463.91 346.467C1462.45 346.805 1461.16 347.836 1459.77 348.497C1453.92 351.271 1448.2 354.365 1442.17 356.663C1437.64 358.387 1435.78 361.219 1436.97 366.286C1439.08 375.26 1441 384.277 1443 394.277ZM1404 403.277C1403.63 396.742 1401.99 390.567 1397.92 385.366C1396.81 383.937 1393.37 382.268 1393.04 382.616C1391.15 384.65 1388.04 388.38 1388.71 389.459C1391.2 393.483 1388.93 396.351 1387.71 399.521C1386.22 403.362 1386.41 406.285 1390.76 408.094C1395.8 410.189 1401.22 408.754 1404 403.277Z" fill="#960000"/>
</svg>
