<svg width="2039" height="637" viewBox="0 0 2039 637" fill="none" xmlns="http://www.w3.org/2000/svg">
<path d="M2038.5 636.335C1960.18 636.585 1881.87 636.585 1803.55 636.585C1580.71 636.585 1357.87 636.585 1135.03 636.585C1126.81 636.585 1118.59 636.585 1110.37 636.585C1101.31 636.585 1092.25 636.71 1083.2 636.555C1070.95 636.344 1058.7 635.786 1046.45 635.65C1041.43 635.594 1036.4 636.498 1031.37 636.512C1026.84 636.525 1022.32 635.706 1017.79 635.63C1008.73 635.479 999.676 635.585 990.621 635.585C760.615 635.585 530.609 635.682 300.604 635.54C202.93 635.479 104.674 635.869 7.00004 635.585C4.80638 635.579 3.50004 636 0.750036 635.585C-9.99996 604 -5.50012 579.265 1.99993 551.265C7.99988 551.265 14.0672 551.233 20.3356 551.265C112.785 551.73 205.237 551.585 297.689 551.585C298.689 551.585 299.843 551.902 300.65 551.508C301.754 550.969 302.676 549.961 303.502 549.003C303.814 548.642 303.64 547.862 303.688 547.273C303.099 547.404 302.392 547.369 301.94 547.691C298.939 549.832 296.944 549.044 296.56 545.336C296.456 544.332 297.103 543.257 297.374 542.207C298.216 538.958 296.105 536.313 292.72 536.653C291.568 536.768 290.528 537.754 289.375 538.176C288.161 538.622 286.676 539.398 285.685 539.026C284.971 538.759 284.759 536.869 284.536 535.662C284.358 534.696 284.898 533.385 284.425 532.724C283.026 530.771 281.572 528.538 279.576 527.438C278.161 526.658 275.466 526.923 273.983 527.802C270.688 529.756 269.252 529.189 268.383 525.352C268.064 523.941 266.635 522.436 265.31 521.681C263.471 520.634 261.252 520.252 259.196 519.585C252.482 517.406 251.791 517.795 248.408 523.967C247.748 525.173 245.904 525.73 244.606 526.585C243.904 525.329 242.478 523.977 242.629 522.832C243.201 518.483 240.479 517.297 237.378 517.738C233.993 518.22 228.996 517.152 228.582 522.779C228.389 525.392 227.818 527.097 224.946 526.541C221.701 525.912 222.054 523.74 223.159 521.42C224.141 519.357 223.7 518.526 221.186 518.511C218.157 518.493 215.127 517.624 212.106 517.671C209.286 517.715 206.361 518.157 203.731 519.11C202.907 519.409 203.065 522.013 202.435 523.408C202.041 524.282 201.055 525.384 200.26 525.448C199.385 525.517 197.81 524.691 197.597 523.952C195.926 518.149 191.297 518.544 186.851 518.605C182.633 518.662 177.518 516.9 176.383 523.672C176.253 524.448 174.41 525.557 173.547 525.411C172.737 525.274 171.384 523.36 171.62 522.775C174.404 515.904 168.166 517.932 165.549 516.685C164.327 516.103 162.284 517.134 161.156 516.487C157.099 514.16 155.088 515.767 153.411 519.491C152.838 520.763 151.228 521.567 150.092 522.585C149.562 521.158 148.567 519.721 148.595 518.304C148.655 515.181 148.183 513.277 144.337 513.492C141.67 513.642 138.713 513.485 136.313 512.463C131.872 510.572 130.256 511.85 129.302 516.328C128.963 517.919 126.344 519.024 124.766 520.351C124.393 518.547 123.071 515.964 123.806 515.071C127.53 510.539 123.288 510.726 121.16 510.683C110.67 510.468 100.167 510.411 89.6837 510.755C87.9182 510.813 86.1237 512.993 84.539 514.411C83.6065 515.246 83.0609 516.513 82.3413 517.585C81.2682 516.626 79.7579 515.865 79.214 514.666C78.1205 512.254 76.7277 511.152 73.997 511.532C72.0361 511.805 69.9697 511.83 68.015 511.536C63.5695 510.867 61.055 512.215 60.332 517.011C60.1286 518.36 57.8918 519.402 56.5877 520.585C55.8918 519.156 55.3374 517.632 54.4639 516.321C53.3897 514.709 51.9745 511.911 50.8357 511.973C40.2116 512.557 29.6256 513.796 19.006 514.513C14.5688 514.812 10.7304 514.953 11.3832 521.045C11.4645 521.804 9.87302 523.497 9.19256 523.428C7.7493 523.28 6.28806 522.398 5.0846 521.486C4.80087 521.271 5.47023 519.733 5.7726 518.828C6.05397 517.986 6.43056 517.175 6.76522 516.351C5.74543 516.194 4.71907 515.88 3.70764 515.922C2.63106 515.968 1.56864 516.35 0.500036 516.585C0.50004 514.752 0.50004 512.919 0.750043 510.835C3.36347 510.252 5.74383 509.557 8.08653 509.666C12.0506 509.852 14.4056 509.345 12.6226 504.488C12.2597 503.499 13.1362 501.524 14.0641 500.774C14.7129 500.251 16.7283 500.665 17.5698 501.351C18.3794 502.011 19.0213 503.705 18.7639 504.69C17.9921 507.645 19.1039 508.738 21.8556 508.566C26.0545 508.305 30.241 507.78 34.4419 507.639C36.8639 507.558 38.6069 507.378 38.612 504.268C38.6135 503.373 39.8195 502.028 40.7426 501.733C41.4394 501.511 43.1687 502.449 43.3959 503.191C44.3986 506.462 46.7239 506.727 49.5376 506.616C52.8652 506.485 56.2212 506.359 59.5297 506.641C63.8829 507.013 67.0591 506.341 67.6452 501.105C67.7513 500.156 69.6948 498.899 70.8942 498.773C71.6641 498.692 73.4062 500.454 73.3681 501.332C73.1788 505.69 76.0077 506.767 79.2036 506.465C83.0124 506.106 87.7561 507.292 89.5831 501.851C90.1183 500.257 91.6507 498.998 92.726 497.585C93.984 498.815 95.8598 499.832 96.3731 501.319C97.4854 504.541 99.0809 506.181 102.659 505.633C104.45 505.359 106.327 505.471 108.149 505.611C111.153 505.844 112.713 505.044 112.665 501.555C112.647 500.245 114.495 498.909 115.492 497.585C116.495 498.737 118.275 499.836 118.358 501.05C118.637 505.142 121.786 506.819 124.455 506.322C128.128 505.638 133.489 510.267 135.674 503.26C136.065 502.005 138.666 501.225 140.39 500.76C140.79 500.652 142.649 503.221 142.364 503.73C139.955 508.015 144.062 507.768 145.815 508.473C148.533 509.566 151.529 510.338 154.445 510.481C158.232 510.668 162.797 512.032 163.997 505.843C164.26 504.488 167.228 503.657 168.951 502.585C169.39 504.496 170.69 506.738 170.107 508.256C168.321 512.907 170.304 513.832 174.291 513.596C175.454 513.527 176.624 513.593 177.79 513.584C180.687 513.562 183.927 514.374 183.748 509.41C183.716 508.528 186.92 507.53 188.63 506.585C189.252 508.087 190.812 510.082 190.329 511.004C188.448 514.589 190.562 514.688 192.969 514.554C196.837 514.339 200.688 513.766 204.556 513.64C207.041 513.559 208.604 513.184 208.642 510.155C208.653 509.288 210.494 507.651 211.281 507.771C212.454 507.95 214.3 509.339 214.342 510.28C214.478 513.377 216.133 513.672 218.566 513.614C222.786 513.512 227.011 513.585 231.234 513.585C233.512 513.585 234.992 513.418 233.93 510.228C233.558 509.107 235.678 507.157 236.661 505.585C237.607 506.931 238.685 508.207 239.453 509.649C239.949 510.58 239.633 512.124 240.291 512.759C244.587 516.901 249.483 512.903 254.105 513.393C254.763 513.463 255.487 510.731 256.561 509.685C257.557 508.715 259.011 507.956 260.365 507.742C260.881 507.661 262.447 509.758 262.228 510.178C259.8 514.815 263.04 515.506 266.247 516.641C269.285 517.716 272.104 519.402 275.124 520.542C278.02 521.635 281.129 523.427 283.06 518.747C283.479 517.732 285.886 517.536 287.377 516.963C287.655 518.434 288.126 519.901 288.157 521.377C288.191 522.982 287.141 525.635 287.737 526.022C290.151 527.588 293.512 529.973 295.618 529.285C300.728 527.615 301.745 529.224 301.593 533.767C301.567 534.554 302.762 535.383 303.393 536.192C304.286 533.681 306.021 531.125 305.894 528.667C305.642 523.825 304.068 519.062 303.64 514.214C303.465 512.235 304.908 510.135 305.485 508.055C305.663 507.412 305.612 506.133 305.327 506.023C302.306 504.855 303.209 503.111 304.398 501.17C306.753 497.325 301.637 496.604 301.289 493.875C300.026 494.63 298.739 495.348 297.507 496.151C296.331 496.917 295.212 497.77 294.068 498.585C293.545 497.149 292.16 495.247 292.642 494.352C295.429 489.182 291.46 487.335 288.268 486.083C284.62 484.651 280.097 481.898 277.31 488.079C276.756 489.307 274.463 489.751 272.971 490.557C272.481 488.76 271.005 486.336 271.678 485.281C274.035 481.585 271.318 481.104 269.106 480.646C263.393 479.464 257.525 478.939 251.891 477.486C246.294 476.041 241.644 475.742 239.294 482.269C239.191 482.552 238.881 482.849 238.596 482.963C237.575 483.373 235.834 484.258 235.604 483.971C234.694 482.834 234.014 481.366 233.742 479.928C233.611 479.237 234.626 478.361 235.042 477.529C235.948 475.724 235.9 474.954 233.37 474.446C229.319 473.633 225.484 471.799 221.492 470.619C217.387 469.406 213.314 468.53 210.305 473.112C209.766 473.932 207.895 473.876 206.64 474.225C206.469 472.636 205.547 470.396 206.26 469.572C209.096 466.296 206.837 464.908 204.459 463.621C200.934 461.712 197.343 459.897 193.66 458.321C191.364 457.338 188.884 456.196 187.325 459.923C186.927 460.874 184.364 460.92 182.796 461.381C182.403 459.91 181.213 457.968 181.755 457.049C184.185 452.931 180.978 451.359 178.655 449.645C175.524 447.333 172.06 445.477 168.786 443.353C165.434 441.18 162.574 440.145 160.319 444.948C159.888 445.864 157.111 445.679 155.417 446.002C155.395 444.413 154.689 442.043 155.464 441.365C159.766 437.601 156.089 436.456 153.551 435.671C146.29 433.427 138.962 431.323 131.547 429.676C126.429 428.539 121.135 428.104 115.895 427.633C111.765 427.262 111.519 428.09 112.15 431.925C112.423 433.59 111.027 435.614 110.06 437.284C109.947 437.48 106.833 436.663 106.68 435.969C106.308 434.283 106.764 432.375 107.099 430.597C107.197 430.079 108.013 429.697 108.5 429.253C107.597 428.697 106.708 427.691 105.787 427.661C100.96 427.5 96.0349 427.053 91.3373 427.849C89.4683 428.165 87.994 431.348 86.5378 433.369C85.6237 434.637 85.0776 436.171 84.3664 437.585C83.0776 435.858 80.4579 433.85 80.7513 432.456C81.6088 428.38 79.6635 428.374 76.8535 428.569C75.5268 428.662 74.1318 428.339 72.8654 428.629C67.9323 429.761 60.8558 427.575 60.8187 436.574C60.8134 437.86 58.2235 439.135 56.8298 440.415C56.0533 438.571 54.1831 436.317 54.693 434.954C56.6956 429.599 53.0681 430.596 50.3342 430.638C49.1343 430.657 47.9582 431.47 46.7461 431.552C31.3334 432.603 15.9161 433.585 0.50004 434.585C0.500041 433.085 0.50004 431.585 0.75004 429.835C1.83512 429.585 2.67031 429.595 3.50525 429.584C7.37831 429.533 11.6401 430.274 11.68 424.122C11.6855 423.269 14.1874 421.689 15.4063 421.803C16.5267 421.908 18.3272 423.835 18.3397 424.976C18.3764 428.341 20.1137 428.868 22.7636 428.577C25.4617 428.282 28.1584 427.608 30.8451 427.659C34.7352 427.733 36.5836 426.381 36.6361 422.28C36.652 421.038 38.2887 419.816 39.183 418.585C40.2887 419.772 41.3689 420.983 42.5064 422.138C43.9851 423.639 45.3856 426.157 47.0401 426.35C50.4837 426.752 54.0997 426.089 57.5941 425.54C61.8453 424.873 67.3964 426.175 67.8231 418.996C67.8763 418.101 70.8904 417.181 72.6491 416.764C72.9853 416.684 74.7074 419.394 74.3623 419.989C72.3235 423.502 74.5106 423.689 76.9431 423.551C80.4776 423.351 83.993 422.793 87.5278 422.624C90.6165 422.476 94.0823 423.44 93.7315 418.17C93.6812 417.414 96.7515 415.734 98.3599 415.757C100.669 415.789 100.872 417.44 99.6327 419.49C99.3159 420.014 100.582 422.407 101.21 422.444C105.692 422.709 112.537 424.44 114.272 422.25C120.348 414.586 121.911 420.732 125.844 423.925C128.264 425.889 132.889 425.262 136.543 425.545C139.93 425.808 143.43 426.236 145.041 421.8C145.283 421.135 148.148 420.978 149.566 421.389C150.195 421.572 150.933 424.231 150.437 424.952C147.988 428.513 150.871 429.412 153.005 430.516C154.768 431.428 156.944 431.608 158.599 432.651C161.73 434.623 164.404 435.185 167.443 432.36C168.217 431.64 170.28 432.306 171.751 432.336C171.667 433.427 171.482 434.523 171.526 435.609C171.58 436.935 171.38 438.59 172.074 439.513C174.195 442.337 176.598 442.419 179.624 440.199C181.082 439.129 183.603 439.506 185.643 439.228C185.272 440.837 185.338 442.77 184.436 443.984C182.798 446.187 183.423 447.172 185.374 448.644C189.225 451.548 191.611 449.625 193.961 446.646C195.512 444.679 197.597 443.272 199.613 445.507C200.207 446.166 199.278 448.913 198.317 450.122C195.793 453.298 196.303 455.864 200.295 456.456C201.956 456.702 203.838 455.538 205.605 454.972C207.556 454.347 209.492 453.672 211.434 453.019C211.202 454.961 210.944 456.9 210.753 458.846C210.673 459.663 210.461 461.081 210.776 461.229C214.117 462.797 217.472 464.49 221.016 465.362C221.929 465.586 223.355 462.784 224.851 461.871C226.068 461.127 227.783 460.793 229.19 460.97C229.713 461.036 230.638 463.765 230.276 464.104C225.952 468.165 230.295 468.209 232.522 469.069C234.966 470.013 237.5 471.432 239.982 471.405C243.576 471.367 247.972 473.539 250.585 468.696C251.298 467.374 253.041 466.607 254.311 465.585C254.566 467.227 254.776 468.878 255.088 470.508C255.351 471.879 255.866 474.427 256.044 474.407C259.32 474.047 262.96 474.099 265.701 472.579C268.603 470.969 270.37 471.378 271.949 473.603C276.498 480.014 282.096 481.271 288.395 477.316C289.403 476.683 291.225 476.671 292.339 477.148C292.969 477.418 292.917 479.268 293.183 480.404C293.427 481.446 293.348 482.875 294.007 483.446C295.518 484.755 297.305 485.848 299.147 486.639C300.618 487.271 302.337 487.328 303.945 487.64C303.609 485.933 303.202 484.237 302.951 482.518C302.525 479.605 301.803 476.661 301.92 473.759C302.106 469.158 303.076 464.592 303.35 459.989C303.602 455.751 303.571 451.471 303.299 447.233C303.043 443.253 306.615 439.236 302.055 435.023C300.486 433.573 301.079 426.591 302.911 425.301C307.035 422.399 304.67 420.989 303.158 418.661C302.34 417.4 301.504 415.774 301.588 414.367C302.076 406.136 303.186 397.929 303.357 389.699C303.447 385.327 302.403 380.655 297.277 378.887C282.114 373.657 266.894 368.592 251.765 363.265C248.295 362.044 246.708 362.248 246.325 366.393C246.193 367.82 243.844 370.299 242.834 370.145C240.057 369.724 238.366 367.775 240.013 364.55C241.338 361.956 240.491 360.6 237.566 360.109C231.208 359.041 224.906 357.594 218.523 356.744C217.322 356.584 215.74 358.354 214.528 359.449C213.141 360.703 211.971 362.196 210.706 363.585C209.638 361.834 207.682 360.077 207.692 358.331C207.71 355.076 206.553 353.857 203.573 353.07C197.448 351.451 191.486 349.207 185.348 347.649C178.976 346.031 172.494 344.814 166.02 343.641C163.693 343.219 161.488 343.346 161.333 346.924C161.278 348.187 159.295 349.367 158.193 350.585C157.295 349.162 155.711 347.777 155.629 346.309C155.388 341.967 152.461 341.092 149.178 340.635C147.217 340.363 145.013 341.095 143.221 340.485C138.7 338.948 137.683 340.871 137.319 344.928C137.2 346.245 134.953 347.372 133.68 348.585C132.953 347.353 131.468 346.005 131.636 344.91C132.25 340.901 130.075 338.964 126.833 338.718C122.99 338.426 119.021 338.844 115.208 339.523C113.374 339.849 111.185 341.088 110.181 342.595C107.567 346.518 107.463 346.506 104.395 342.631C103.208 341.132 100.845 339.763 98.9986 339.736C93.3118 339.656 87.6154 340.512 81.9227 340.512C76.23 340.512 70.5399 339.858 64.8435 339.612C62.1366 339.495 58.6566 338.715 60.3781 343.743C60.603 344.4 59.1315 346.45 58.5153 346.42C57.0675 346.35 55.5714 345.553 54.2942 344.738C53.9142 344.495 53.9137 343.067 54.2405 342.446C54.7335 341.508 55.6666 340.802 56.4127 339.998C55.1084 339.527 53.7819 338.596 52.5033 338.658C41.2785 339.2 30.0289 339.59 18.8574 340.722C13.1214 341.303 5.60822 341.184 7.50004 350.87C6.2753 351.05 4.26585 351.767 3.96017 351.319C2.5475 349.252 1.60865 346.861 0.50005 344.585C0.500041 342.419 0.500041 340.252 0.500041 337.835C1.99999 337.585 3.72113 338.059 4.95236 337.484C7.28059 336.396 11.1599 336.277 8.73581 331.418C7.78025 329.503 9.46618 326.269 9.94927 323.636C11.1329 323.917 13.0896 323.885 13.3531 324.537C14.1046 326.397 14.2606 328.525 14.4814 330.566C15.0172 335.518 16.2794 336.375 21.361 335.616C26.731 334.813 32.1225 334 37.5333 333.686C40.4898 333.514 41.8214 332.697 41.5189 329.678C41.4031 328.523 41.0782 327.082 41.6034 326.244C42.3098 325.118 43.7467 324.45 44.8701 323.585C45.4135 324.668 46.561 325.851 46.4015 326.818C45.4036 332.868 48.2308 334.415 53.6364 333.653C54.9626 333.466 56.3963 334.23 57.7988 334.36C61.1688 334.672 64.8229 335.641 65.6478 330.432C65.7707 329.656 67.9502 328.613 69.031 328.762C69.963 328.89 71.4362 330.595 71.3701 331.51C71.0831 335.483 73.3047 335.782 76.3139 335.616C78.9724 335.47 81.6495 335.491 84.3109 335.609C87.7987 335.763 90.4892 335.254 90.6453 330.815C90.6726 330.037 92.6265 328.72 93.6479 328.76C94.6274 328.797 96.3708 330.287 96.3578 331.116C96.3025 334.645 98.3982 334.661 100.912 334.607C104.743 334.524 108.579 334.533 112.411 334.601C116.003 334.665 118.753 333.823 120.625 330.189C122.007 327.504 124.529 327.581 125.412 330.827C126.221 333.802 127.875 334.574 130.681 334.645C134.382 334.737 138.076 335.5 141.766 335.448C143.022 335.431 144.494 334.015 145.423 332.876C146.142 331.995 145.871 330.32 146.574 329.411C147.472 328.251 148.907 327.508 150.111 326.585C150.907 327.748 151.721 328.9 152.496 330.077C153.824 332.092 149.24 335.147 153.476 336.516C155.711 337.24 158.181 337.224 160.537 337.598C161.614 337.769 162.704 338.379 163.728 338.261C166.579 337.933 170.964 341.257 171.622 335.096C171.685 334.501 173.473 333.624 174.366 333.724C175.147 333.812 176.363 335.06 176.407 335.851C176.675 340.641 179.246 342.436 183.805 342.68C186.058 342.801 188.424 343.6 190.444 344.656C193.983 346.505 196.446 345.591 198.962 342.788C199.922 341.719 201.859 341.527 203.35 340.936C203.41 342.309 203.556 343.686 203.51 345.056C203.428 347.483 203.327 349.353 206.825 349.71C211.795 350.218 216.647 352.15 221.604 352.408C225.616 352.616 230.264 349.767 233.605 351.016C236.746 352.19 238.744 356.097 243.164 356.782C247.83 357.506 251.962 358.76 255.492 354.294C256.042 353.599 258.087 354.086 259.44 354.026C259.46 355.075 259.12 356.329 259.576 357.129C260.502 358.756 261.556 360.816 263.091 361.498C268.291 363.81 273.657 365.825 279.121 367.394C280.218 367.709 283.117 365.723 283.29 364.525C283.764 361.24 285.834 361.271 287.858 361.785C288.391 361.92 288.858 364.715 288.393 365.917C287.127 369.197 288.194 370.862 291.29 371.91C294.059 372.848 296.779 373.945 299.474 375.082C302.789 376.48 303.628 374.785 303.486 371.942C303.199 366.188 302.663 360.441 302.542 354.684C302.375 346.797 302.725 338.893 302.335 331.022C302.242 329.157 300.467 326.806 298.791 325.72C296.129 323.995 295.409 321.84 294.242 319.021C290.379 309.695 293.109 299.874 291.119 290.741C289.464 283.143 295.79 277.387 293.5 270.315C296.959 267.303 297.274 263.275 297.72 259.02C298.111 255.295 297.412 253.023 294.278 250.632C289.665 247.114 285.693 242.746 281.537 238.649C280.937 238.058 280.289 236.55 280.582 236.163C284.781 230.628 280.347 225.814 279.604 220.658C278.735 214.624 277.335 209.416 271.569 205.947C268.447 204.069 266.733 200.904 266.132 196.697C265.801 194.383 262.032 191.723 259.276 190.762C252.846 188.522 245.592 188.489 240.43 183.076C240.066 182.695 239.163 182.462 238.666 182.627C230.347 185.391 222.858 181.448 215.25 179.484C198.433 175.143 181.707 170.422 165.071 165.429C162.07 164.528 159.611 161.671 157.065 159.524C156.561 159.098 156.381 157.502 156.768 156.932C159.347 153.132 161.801 149.167 164.91 145.827C169.053 141.378 173.704 144.227 174.32 148.594C175.198 154.808 179.198 155.536 184.085 156.723C192.336 158.725 200.419 161.467 208.491 164.145C212.572 165.499 216.377 167.732 220.496 168.908C222.752 169.552 225.888 169.655 227.774 168.548C232.244 165.923 236.739 166.227 241.011 167.756C247.665 170.139 253.948 173.548 260.571 176.033C264.914 177.663 269.55 178.576 274.111 179.546C279.101 180.608 280.089 176.11 281.128 173.203C282.595 169.103 282.974 164.563 283.46 160.171C284.708 148.906 285.342 137.51 292.489 127.897C294.56 125.112 297.035 122.459 298.377 119.338C300.504 114.393 301.826 109.103 303.502 103.963C305.963 96.4178 312.527 93.7343 320.272 94.5605C327.911 95.3753 336.033 95.8449 343.277 91.5929C348.893 88.2961 349.45 76.0205 343.557 73.7698C333.837 70.0569 332.401 62.0677 331.559 53.6432C330.024 38.2848 334.004 24.5161 343.333 12.0048C347.329 6.64481 352.251 3.86265 358.314 2.27476C366.72 0.0730346 375.193 -0.317102 383.696 1.59958C392.53 3.5908 399.021 14.1133 399.57 22.6014C399.824 26.5185 401.754 30.4929 401.321 34.2566C400.185 44.1269 398.748 54.051 396.193 63.623C395.266 67.0933 391.285 70.4176 387.878 72.3971C382.949 75.2606 381.392 79.5234 380.555 84.4145C379.97 87.8248 384.328 91.993 388.539 92.6009C393.869 93.3706 399.269 93.8991 404.484 95.1675C413.604 97.3858 419.819 103.91 424.365 111.457C433.485 126.594 442.53 141.857 450.233 157.734C454.702 166.946 456.703 177.397 459.426 187.396C461.153 193.736 462.466 200.227 463.417 206.73C464.397 213.429 460.708 222.788 453.668 227.178C442.731 233.999 431.24 234.573 419.144 232.729C414.866 232.077 410.088 235.98 409.498 240.603C409.175 243.133 408.395 245.696 408.597 248.181C408.946 252.486 410.855 256.768 415.349 257.419C424.926 258.808 427.656 265.274 429.586 273.368C433.231 288.661 433.934 304.144 433.36 319.725C433.29 321.642 431.748 324.074 430.144 325.273C420.83 332.24 419.887 334.496 422.533 345.154C423.365 348.507 423.978 351.927 424.471 355.348C425.246 360.723 425.565 366.175 426.565 371.503C427.976 379.027 429.552 386.544 431.58 393.921C433.543 401.056 436.133 408.021 438.54 415.029C438.864 415.975 439.724 416.738 440.336 417.585C440.754 416.722 441.161 415.852 441.595 414.997C441.876 414.444 442.122 413.85 442.513 413.382C443.871 411.758 445.567 408.673 446.625 408.871C449.679 409.441 449.668 412.41 449.467 415.191C449.339 416.965 449.871 418.786 450.107 420.585C451.905 419.562 453.736 418.59 455.478 417.48C455.955 417.176 456.043 416.232 456.522 415.969C458.142 415.081 459.857 414.366 461.535 413.585C461.857 415.028 462.877 416.804 462.376 417.854C460.494 421.802 461.157 423.559 465.79 423.685C467.534 423.732 469.198 425.189 470.986 425.494C473.836 425.981 478.064 428.843 477.704 422.147C477.663 421.37 480.428 420.443 481.892 419.585C482.428 421.176 483.79 423.069 483.34 424.297C482.15 427.545 482.72 428.582 486.234 428.634C500.597 428.85 514.959 429.196 529.318 429.623C533.201 429.738 535.714 428.884 535.544 424.301C535.418 420.904 538.17 421.416 540.153 421.657C542.338 421.923 542.929 422.812 541.693 425.307C540.802 427.107 540.762 430.782 545.099 428.603C545.365 428.469 545.757 428.585 546.09 428.585C551.647 428.585 557.207 428.481 562.76 428.63C565.462 428.703 568.151 429.26 570.847 429.583C573.664 429.921 574.604 428.606 574.542 425.859C574.406 419.805 574.341 413.74 574.577 407.692C574.673 405.241 575.024 402.432 576.301 400.46C581.369 392.631 582.596 384.05 582.532 375.004C582.418 358.948 582.612 342.889 582.441 326.835C582.379 320.959 579.02 318.256 570.942 316.585C564.491 315.251 562.577 311.927 564.318 305.234C564.56 304.305 564.443 303.284 564.501 302.306C565.166 291.082 565.79 279.856 566.516 268.636C566.989 261.315 564.648 255.732 558.245 251.455C553.107 248.023 551.012 242.077 549.543 236.253C545.385 219.768 547.986 203.55 552.14 187.508C555.015 176.407 558.148 165.361 561.555 154.412C565.745 140.944 572.739 129.022 582.061 118.377C585.018 115 587.301 110.946 589.418 106.951C591.064 103.845 593.042 102.585 596.637 102.461C602.043 102.274 607.435 101.34 612.801 100.514C613.935 100.34 615.115 99.4397 615.959 98.5688C623.011 91.2945 622.049 77.7333 613.312 73.1708C603.273 67.9286 599.266 58.9174 597.848 49.2015C596.56 40.3847 596.87 31.3908 602.224 22.6554C610.609 8.97654 630.234 0.0838981 646.454 6.9307C651.574 9.09183 656.441 12.5568 662.526 11.5918C665.037 11.1935 667.634 11.132 670.064 10.4583C677.688 8.34507 680.591 9.01224 682.38 17.4425C683.381 22.1625 683.513 27.1537 683.327 31.9956C683.254 33.8971 681.488 35.9373 680.073 37.5448C676.089 42.0708 671.059 45.9266 668.12 51.016C666.646 53.5678 668.448 58.3318 669.431 61.9135C671.303 68.7345 671.608 75.2792 669.668 82.2627C667.938 88.4917 664.088 91.5084 658.534 93.7279C656.52 94.5324 655.159 96.9676 653.5 98.6588C655.374 100.301 657.127 103.194 659.142 103.391C677.822 105.213 688.814 117.514 699.721 130.982C709.861 143.502 713.665 157.917 716.576 173.087C719.203 186.777 721.345 200.441 720.567 214.447C720.428 216.949 721.24 219.493 721.487 222.03C722.362 231.033 719.434 238.384 712.404 244.303C708.258 247.793 708.066 250.483 712.406 253.764C719.516 259.139 727.239 263.705 734.726 268.579C739.217 271.502 743.386 274.284 743.767 280.684C743.907 283.039 746.686 285.797 748.956 287.365C757.194 293.051 765.666 298.408 774.17 303.695C778.975 306.681 783.812 307.328 788.127 302.517C788.831 301.732 789.895 300.929 790.875 300.81C792.379 300.628 793.955 301.031 795.5 301.186C794.887 302.432 794.51 303.888 793.621 304.888C789.541 309.473 789.504 309.768 793.993 313.583C794.246 313.798 794.516 314.02 794.694 314.293C795.828 316.03 796.937 317.783 798.055 319.53C795.779 319.291 793.17 319.691 791.282 318.707C780.16 312.911 769.396 306.403 758.125 300.93C751.513 297.72 744.207 295.916 737.164 293.63C735.231 293.003 733.126 292.888 731.092 292.593C728.568 292.227 725.643 290.947 723.586 291.78C718.701 293.757 714.992 292.078 711.162 289.59C705.749 286.073 703.093 287.093 700.404 292.595C698.02 297.475 695.291 302.346 691.853 306.509C687.73 311.502 689.699 316.586 691.751 320.629C695.297 327.618 694.474 334.969 695.323 342.119C696.142 349.022 695.409 356.1 695.521 363.098C695.692 373.775 696.629 384.027 701.164 394.26C705.817 404.76 705.071 416.467 701.477 427.618C700.311 431.236 699.144 434.761 702.36 437.937C705.919 441.451 710.49 440.707 714.746 440.388C715.759 440.312 716.443 437.643 717.538 436.394C718.768 434.99 720.117 433.232 721.741 432.766C723.213 432.344 725.317 432.893 723.896 435.911C723.063 437.68 723.561 442.022 723.755 442.04C727.88 442.425 732.054 442.498 736.198 442.268C737.066 442.22 737.757 440.586 738.709 439.952C739.482 439.436 740.897 438.804 741.368 439.142C742.297 439.809 743.557 441.4 743.299 442.105C742.02 445.604 744.212 446.076 746.645 446.59C752.312 447.788 757.972 449.022 763.639 450.219C766.185 450.756 768.715 451.529 769.868 447.86C770.174 446.887 771.807 446.332 772.831 445.585C773.721 446.851 775.422 448.164 775.351 449.372C775.117 453.336 777.664 454.254 780.537 455.124C787.645 457.275 794.874 459.108 801.807 461.726C805.122 462.977 807.188 462.648 809.505 460.215C810.329 459.351 811.948 459.243 813.204 458.789C813.596 460.26 814.779 462.185 814.241 463.122C812.232 466.623 814.042 467.917 816.777 469.426C825.336 474.147 833.792 479.055 842.298 483.874C844.098 484.894 845.961 486.778 846.67 482.648C846.876 481.447 849.006 480.318 850.482 479.71C851.158 479.432 853.273 480.709 853.223 480.916C852.875 482.355 852.357 483.871 851.466 485.036C849.624 487.445 850.391 488.402 852.909 489.658C861.901 494.14 870.722 498.964 879.655 503.565C883.766 505.683 887.891 507.838 892.194 509.494C894.955 510.557 898.343 511.417 898.567 506.379C898.596 505.74 899.494 504.67 900.071 504.612C901.753 504.444 903.476 504.687 905.183 504.769C905.118 506.045 905.494 507.583 904.917 508.554C901.247 514.721 901.062 514.318 907.942 516.595C910.576 517.466 913.117 518.831 915.811 519.228C917.4 519.463 919.419 518.532 920.789 517.512C921.245 517.172 920.239 514.936 919.979 513.552C919.661 511.853 919.425 510.14 919.153 508.433C920.564 508.484 922.173 508.116 923.347 508.67C926.024 509.933 928.164 510.061 930.132 507.506C931.141 506.197 932.355 504.994 933.658 503.975C936.712 501.586 938.186 499.235 935.841 495.213C934.388 492.723 937.046 490.366 938.907 491.842C943.182 495.231 945.956 492.269 948.97 490.504C951.832 488.828 954.468 486.701 956.976 484.512C958.397 483.271 960.899 482.128 958.894 479.313C958.589 478.886 959.332 477.119 960.027 476.709C961.175 476.029 963.38 475.219 963.918 475.735C967.418 479.098 970.522 477.71 973.959 475.733C975.658 474.755 977.732 474.181 979.695 473.965C983.099 473.59 984.012 471.477 984.594 468.581C984.817 467.473 986 465.9 986.928 465.762C988.015 465.6 989.972 466.484 990.374 467.42C991.559 470.183 993.309 469.872 995.47 469.133C997.372 468.482 999.404 468.142 1001.21 467.305C1003.93 466.047 1008.81 466.114 1005.69 460.597C1005.37 460.034 1007.73 457.959 1008.84 456.585C1009.73 457.66 1011.15 458.622 1011.4 459.828C1012.27 463.999 1015.03 462.75 1017.41 462.109C1020.08 461.39 1022.65 460.291 1025.25 459.329C1030.12 457.531 1032.1 451.133 1029.85 445.361C1029.07 443.345 1028.77 441.093 1028.53 438.917C1027.78 432.036 1026.89 425.152 1026.6 418.246C1026.41 413.739 1027.42 409.193 1027.43 404.664C1027.44 400.47 1027.31 396.165 1026.37 392.109C1025.36 387.705 1021.38 386.998 1017.37 386.509C1013.6 386.05 1009.83 389.279 1005.97 385.763C1003.19 383.218 1001.76 381.26 1002.25 377.022C1002.92 371.276 1001.66 365.33 1001.57 359.465C1001.53 356.629 1001.74 353.569 1002.78 350.995C1004.03 347.913 1005.96 345.339 1010.34 345.472C1020.32 345.775 1030.36 346.433 1040.19 343.615C1046.57 341.788 1048.14 339.827 1046.41 333.461C1044.97 328.119 1043.99 322.412 1038.06 319.384C1036.46 318.566 1034.72 315.311 1035.14 313.728C1036.43 308.87 1041.27 307.795 1045.31 307.747C1056.5 307.614 1067.73 308.921 1078.89 308.422C1094.03 307.745 1109.13 306.015 1124.22 304.459C1126.02 304.273 1128.81 302.62 1129.14 301.187C1130.36 295.908 1134.93 294.739 1138.42 294.829C1151.67 295.168 1157.84 285.954 1164.52 277.095C1165.11 276.304 1165.79 275.429 1166.64 274.999C1177.78 269.361 1174.6 259.847 1173.24 250.833C1172.7 247.235 1171.91 243.665 1171.54 240.051C1171.04 235.04 1170.47 229.991 1170.58 224.972C1170.79 215.082 1179.39 202.701 1189.2 199.599C1197.75 196.895 1206.25 193.9 1214.96 191.881C1218.25 191.119 1222.37 192.064 1225.63 193.398C1234.04 196.841 1240.42 202.484 1243.63 211.495C1245.07 215.521 1247.85 219.101 1250.23 222.744C1251.57 224.79 1252.91 224.476 1255.46 223.439C1264.73 219.666 1274.28 216.446 1283.91 213.704C1290.78 211.749 1293.6 217.951 1297.32 221.943C1298.16 222.853 1298.94 223.924 1299.43 225.059C1301.48 229.824 1304.01 230.413 1308.77 227.781C1313.42 225.214 1318.92 222.996 1324.1 222.854C1334 222.585 1339.46 217.46 1343.56 209.373C1345.88 204.803 1348.51 200.325 1351.52 196.189C1355.57 190.628 1361.28 187.127 1367.76 184.802C1375.15 182.147 1382.63 179.664 1389.81 176.494C1397.41 173.135 1404.65 173.263 1410.73 178.734C1414.98 182.559 1419.91 183.721 1424.9 184.407C1430.52 185.18 1436.34 184.828 1442.04 184.511C1446.87 184.243 1447.96 185.837 1448.73 191.238C1449.22 194.707 1451.14 198.704 1453.73 200.999C1460.01 206.577 1466.93 211.466 1473.83 216.295C1477.09 218.571 1479.31 220.342 1477.81 225.023C1476.71 228.438 1476.87 232.214 1480.45 235.274C1483.54 237.914 1486.23 237.906 1489.76 236.92C1494.73 235.533 1499.9 234.87 1504.87 233.498C1507.2 232.855 1509.23 231.187 1511.48 230.186C1512.12 229.907 1513.21 230.131 1513.82 230.539C1514.18 230.785 1514.15 231.855 1514.04 232.515C1512.89 239.695 1510.8 246.85 1510.66 254.043C1510.23 277.534 1510.46 301.039 1510.54 324.538C1510.56 328.234 1511.96 332.065 1511.35 335.597C1509.56 345.989 1512.74 355.376 1515.15 365.222C1516.98 372.672 1516.12 380.988 1512.26 388.293C1509.03 394.423 1507.53 400.844 1507.39 407.82C1507.25 414.796 1505.22 421.783 1508.44 428.608C1508.78 429.342 1508.48 430.571 1508.12 431.42C1504.17 440.742 1505.28 450.314 1506.24 459.983C1506.53 462.933 1504.46 466.085 1504.61 469.086C1505.51 486.561 1504.65 504.15 1508.33 521.469C1509.14 525.255 1507.57 529.49 1507.57 533.518C1507.58 537.714 1507.92 541.953 1508.65 546.078C1508.88 547.402 1510.77 549.36 1511.99 549.434C1520.11 549.926 1528.26 550.121 1536.4 550.132C1541.1 550.138 1541.56 545.719 1541.31 542.985C1539.91 527.777 1549.57 517.702 1557.04 506.381C1566.44 492.131 1580.68 483.958 1593.9 474.148C1603.91 466.719 1613.29 457.905 1618.65 445.703C1623.23 435.252 1628.57 425.04 1634.54 415.314C1639.26 407.611 1645.27 400.66 1651.03 393.631C1659.83 382.881 1668.97 372.412 1677.84 361.712C1686.65 351.069 1695.51 340.454 1703.95 329.515C1711 320.383 1717.84 311.046 1724.01 301.311C1727.08 296.457 1727.59 289.964 1730.75 285.194C1734.4 279.674 1739.59 275.144 1744.28 270.345C1751.25 263.213 1758.39 256.254 1765.41 249.165C1776.58 237.863 1790.65 231.237 1804.86 224.887C1806.18 224.296 1808.24 225.032 1809.85 225.511C1811.31 225.943 1812.55 227.167 1814.01 227.487C1815.37 227.785 1816.89 227.353 1818.34 227.243C1817.53 226.32 1816.51 225.505 1815.93 224.451C1814.98 222.703 1814.17 220.845 1813.53 218.956C1812.23 215.154 1811.79 210.852 1809.7 207.58C1807.14 203.564 1806.62 199.84 1808.74 195.974C1811.06 191.733 1816.79 189.436 1821.43 190.636C1826.09 191.843 1828.34 195.712 1829.11 199.946C1829.44 201.776 1827.84 204.375 1826.42 206.025C1821.87 211.316 1822.33 224.443 1828.03 228.361C1830.7 230.192 1834.49 230.358 1837.75 231.349C1850.04 235.079 1862.38 238.654 1874.56 242.687C1878.67 244.047 1880.93 242.91 1882.49 239.348C1887.19 228.628 1892.08 217.983 1896.42 207.119C1899.4 199.655 1905.39 194.952 1912.91 195.555C1918.04 195.966 1919.99 198.877 1917.85 203.689C1916.22 207.354 1914.39 210.935 1912.48 214.464C1908.21 222.369 1904.21 230.454 1899.41 238.03C1893.18 247.867 1896.42 247.349 1904.38 248.708C1908.42 249.398 1912.31 251.214 1916.15 252.803C1919.05 254.004 1921.35 256.462 1925.18 254.82C1926.34 254.323 1929.76 256.224 1930.31 257.702C1932.21 262.9 1936.95 264.067 1940.61 263.276C1946.82 261.935 1951.95 264.294 1956.48 266.816C1965.51 271.837 1974.15 277.747 1982.27 284.155C1986.97 287.871 1989.52 293.329 1989.72 300.039C1989.91 306.504 1990.64 313.017 1994.28 319.105C1997.06 323.753 1997.61 329.678 1999.61 334.86C2000.42 336.975 2002.13 339.037 2003.97 340.41C2008.36 343.693 2012.81 347.074 2017.7 349.458C2024.24 352.641 2031.21 354.919 2038.25 357.585C2038.5 359.085 2038.5 360.585 2038.25 362.335C2032.21 360.465 2026.18 358.84 2020.71 356.089C2014.87 353.154 2009.6 349.105 2004 345.669C2003.08 345.102 2001.57 344.739 2000.68 345.11C2000 345.39 1999.43 347.056 1999.57 347.989C2000.34 352.963 2001.39 357.894 2002.26 362.853C2004.03 372.957 2006.23 383.016 2007.36 393.194C2008.37 402.313 2008.19 411.565 2008.49 420.759C2008.78 429.356 2010.51 437.533 2014.42 445.308C2016.84 450.102 2018.41 455.316 2020.52 460.274C2027.9 477.648 2027.73 496.122 2028.49 514.458C2028.89 524.315 2029.45 534.179 2029.39 544.037C2029.35 549.248 2032.68 550.715 2038 551C2040 551 2037.83 551 2039 551C2039 579.5 2045.5 612.5 2038.5 636.335ZM1767.5 254.085C1757.72 263.862 1747.8 273.502 1738.26 283.505C1735.64 286.253 1733.23 289.856 1732.33 293.467C1729.1 306.446 1720.92 316.385 1713.01 326.471C1704.19 337.736 1695.01 348.731 1685.83 359.717C1674.84 372.87 1663.66 385.861 1652.64 398.982C1649.14 403.146 1645.32 407.179 1642.61 411.834C1634.97 424.952 1627.28 438.093 1620.68 451.741C1615.46 462.516 1606.76 469.6 1597.87 476.54C1584.77 486.767 1569.75 494.694 1560.85 509.659C1556.77 516.519 1551.47 522.737 1548.08 529.889C1545.93 534.415 1546.28 540.126 1545.5 545.305C1544.9 549.295 1546.25 550.741 1550.6 550.693C1571.93 550.456 1593.26 550.532 1614.59 550.626C1619.42 550.648 1622.88 548.619 1625.5 544.775C1626.74 542.954 1627.93 541.086 1629.31 539.371C1629.65 538.949 1630.98 538.703 1631.24 538.972C1631.8 539.545 1632.34 540.601 1632.18 541.295C1631.91 542.458 1631.1 543.5 1630.5 544.581C1627.42 550.076 1627.72 550.584 1634.05 550.585C1672.54 550.586 1711.04 550.585 1749.54 550.585C1765.87 550.585 1782.2 550.595 1798.53 550.578C1802.25 550.574 1805.73 550.445 1805.61 545.089C1805.56 542.847 1807.01 540.607 1807.2 538.317C1807.76 531.635 1814.62 528.309 1815.03 520.918C1815.78 507.323 1819 493.884 1820.34 480.296C1821.19 471.714 1820.29 462.973 1820.54 454.315C1821.06 436.922 1820.78 419.411 1822.83 402.187C1824.48 388.353 1828.87 374.819 1832.42 361.249C1835.16 350.768 1838.16 340.331 1841.65 330.079C1844.18 322.644 1845.25 314.582 1851.63 308.616C1854.55 305.888 1849.83 305.163 1848.48 304.751C1844.74 303.607 1840.77 303.072 1836.86 302.618C1823.91 301.117 1811.45 297.895 1799.29 293.132C1795.94 291.823 1791.36 291.783 1787.98 292.972C1784.41 294.229 1781.19 297.272 1778.54 300.19C1768.69 311.017 1758.91 321.922 1749.53 333.158C1736.82 348.388 1728.61 366.168 1721.47 384.507C1717.4 394.98 1713.89 405.796 1708.63 415.661C1700.15 431.566 1690.55 446.88 1681.22 462.32C1668.72 482.996 1656.08 503.584 1643.38 524.135C1640.97 528.032 1638.04 531.612 1635.24 535.254C1634.91 535.693 1633.88 535.602 1633.17 535.757C1633.08 535.071 1632.67 534.211 1632.94 533.722C1638.29 523.935 1643.54 514.077 1649.2 504.465C1655.77 493.316 1662.74 482.408 1669.49 471.364C1674.77 462.726 1679.93 454.014 1685.22 445.386C1690.93 436.075 1697.62 427.244 1702.3 417.448C1709.72 401.907 1716.07 385.832 1722.43 369.808C1728.98 353.324 1738.39 338.664 1749.58 325.068C1754.33 319.292 1759.27 313.646 1764.43 308.234C1771.29 301.041 1778.25 293.912 1785.58 287.215C1788.45 284.602 1792.34 283.353 1796.57 285.494C1798.32 286.379 1800.57 286.335 1802.61 286.523C1803.08 286.566 1803.79 285.917 1804.07 285.411C1804.22 285.151 1803.79 284.215 1803.43 284.079C1799.42 282.549 1799.21 279.175 1799.54 275.761C1800.05 270.695 1798.83 266.588 1794.74 263.18C1792.07 260.959 1791.61 257.797 1793.49 254.568C1795.9 250.428 1800.07 249.561 1804.14 249.729C1808.34 249.903 1812.29 251.129 1813.81 256.252C1815.07 260.487 1812.2 262.493 1810.39 265.261C1809.22 267.057 1807.64 269.129 1807.67 271.049C1807.75 274.784 1808.37 278.673 1809.67 282.159C1810.47 284.294 1812.79 287.118 1814.72 287.369C1826.42 288.892 1837.47 292.634 1848.65 296.097C1851.81 297.077 1855.8 299.801 1858.45 295.055C1859.72 292.787 1860.57 290.268 1861.49 287.82C1865.18 278.017 1868.3 267.945 1872.73 258.49C1874.94 253.763 1873.95 252.934 1869.67 252.564C1867.13 252.346 1864.52 252.225 1862.09 251.536C1844.81 246.628 1827.38 242.106 1810.37 236.373C1801.4 233.352 1794.02 234.882 1786.82 239.84C1780.42 244.24 1774.26 248.99 1767.5 254.085ZM2022.5 515.085C2022.17 506.723 2021.91 498.356 2021.48 489.998C2020.87 477.962 2017.64 466.6 2012.52 455.719C2006.13 442.161 2002.07 428.199 2002.28 412.867C2002.43 401.797 2000.74 390.671 1999.44 379.621C1998.06 367.944 1996.38 356.291 1994.32 344.717C1993.92 342.462 1991.59 339.91 1989.46 338.754C1986.4 337.093 1982.72 336.558 1979.29 335.59C1962.73 330.913 1946.15 326.284 1929.62 321.499C1928.73 321.241 1928.2 319.729 1927.5 318.8C1928.55 318.062 1929.68 316.633 1930.65 316.728C1932.75 316.932 1934.77 317.96 1936.84 318.579C1953.64 323.598 1970.15 329.666 1987.53 332.596C1989.32 332.897 1991.08 333.35 1992.85 333.733C1992.74 331.961 1992.66 330.183 1992.47 328.419C1992.42 328.008 1991.86 327.68 1991.69 327.253C1987.47 317.102 1982.56 307.146 1983.41 295.638C1983.49 294.591 1982.5 293.338 1981.75 292.378C1975.3 284.09 1966.52 278.619 1957.53 273.778C1952.74 271.195 1946.9 270.502 1941.5 269.111C1936.51 267.828 1931.5 266.594 1926.45 265.621C1917.78 263.95 1909.02 262.697 1900.39 260.877C1895.67 259.883 1891.21 261.293 1890.55 265.119C1889.07 273.579 1885.91 281.279 1880.54 287.97C1878.37 290.681 1879.45 292.59 1881.64 294.121C1883.25 295.245 1885.27 295.783 1887.1 296.586C1894.72 299.918 1902.32 303.314 1909.98 306.553C1912.81 307.752 1915.74 309.035 1918.74 309.454C1921.51 309.841 1924.46 309.907 1924.36 313.264C1924.25 317.045 1921.38 318.056 1917.85 317.607C1911.97 316.86 1906.05 316.396 1900.19 315.524C1897.3 315.094 1894.41 314.255 1891.68 313.186C1887.38 311.503 1883.33 309.141 1878.97 307.668C1873.46 305.809 1871.95 306.953 1870.49 312.721C1869.95 314.819 1869.42 316.944 1868.6 318.939C1865.97 325.349 1863.03 331.635 1860.54 338.098C1856.5 348.594 1852.63 359.158 1848.87 369.761C1846.09 377.614 1843.39 385.446 1843.37 394.038C1843.37 399.929 1842.16 405.818 1841.5 411.709C1840.16 423.656 1838.51 435.579 1837.6 447.559C1836.8 458.051 1837.16 468.631 1836.42 479.13C1835.4 493.6 1833.87 508.034 1832.48 522.476C1831.93 528.211 1830.84 533.913 1830.63 539.654C1830.5 542.913 1828.38 547.153 1832.83 549.286C1834.75 550.207 1837.12 550.532 1839.28 550.534C1898.12 550.598 1956.95 550.61 2015.78 550.553C2022.65 550.546 2024.65 548.711 2024.41 541.759C2024.12 533.19 2023.17 524.642 2022.5 515.085ZM513.5 500.085C518.796 500.397 525.985 493.026 525.05 488.524C524.745 487.058 525.525 485.366 525.808 483.777C527.632 484.474 529.844 484.764 531.148 486.006C532.059 486.873 532.37 489.346 531.799 490.56C530.997 492.261 528.849 493.286 527.814 494.937C527.167 495.968 526.898 498.111 527.529 498.895C529.059 500.799 530.883 502.685 528.612 504.639C527.79 505.346 525.215 503.784 523.411 503.649C521.784 503.527 519.46 503.335 518.614 504.253C517.165 505.824 516.183 508.172 515.867 510.32C515.652 511.787 516.904 513.469 517.5 515.054C515.703 514.935 513.866 514.534 512.122 514.783C510.688 514.987 509.224 515.791 508.089 516.716C507.808 516.945 508.694 518.7 509.144 519.709C509.724 521.01 510.405 522.266 511.043 523.542C509.455 523.649 507.714 524.226 506.307 523.771C502.687 522.602 501.096 525.245 499.534 527.303C498.9 528.137 499.791 530.189 500.1 531.663C500.368 532.938 500.795 534.178 501.152 535.434C499.616 535.484 497.974 535.916 496.565 535.518C490.951 533.935 487.651 536.576 489.687 542.014C491.392 546.566 488.785 545.625 486.543 545.534C485.17 545.478 483.435 544.229 482.536 544.729C480.644 545.779 479.195 547.628 477.564 549.149C479.198 549.628 480.83 550.518 482.466 550.524C507.621 550.612 532.776 550.603 557.931 550.574C565.083 550.566 568.136 547.044 568.584 539.947C569.263 529.179 570.494 518.446 571.502 507.7C572.494 497.118 573.582 486.545 574.456 475.954C574.771 472.144 570.31 467.917 575.5 464.535C575.167 455.844 574.894 447.15 574.417 438.466C574.362 437.474 573.166 436.544 572.499 435.585C571.833 436.545 571.204 437.532 570.491 438.456C569.412 439.856 568.274 441.211 567.161 442.585C566.345 440.681 565.455 438.804 564.743 436.862C564.385 435.887 564.704 434.215 564.109 433.85C560.952 431.914 556.247 434.649 555.385 438.28C555.008 439.868 553.378 441.159 552.317 442.585C551.412 440.718 549.288 438.273 549.845 437.098C551.183 434.274 549.782 433.732 547.891 433.651C543.235 433.451 538.479 433.063 533.937 433.81C531.726 434.173 525.923 432.902 528.371 439.195C528.673 439.973 527.268 442.346 526.552 442.392C525.166 442.481 523.379 441.757 522.402 440.747C521.808 440.133 521.926 437.93 522.576 437.176C524.818 434.575 523.258 434.57 521.142 434.578C515.645 434.6 510.138 434.781 504.654 434.507C501.671 434.358 499.848 435.228 498.564 437.918C498.048 438.999 496.804 440.325 495.798 440.407C494.844 440.485 493.023 439.206 492.877 438.312C492.234 434.4 490.02 433.474 486.391 433.463C484.166 433.457 481.898 431.586 479.733 431.739C476.333 431.978 471.776 427.776 469.568 433.939C469.202 434.961 468.076 435.71 467.301 436.585C466.367 435.365 464.73 434.197 464.634 432.914C464.363 429.28 462.304 427.67 459.206 426.798C455.324 425.706 451.483 424.326 447.524 423.694C444.583 423.223 440.716 422.774 440.556 427.506C440.334 434.052 440.119 440.64 440.596 447.159C441.2 455.436 442.795 463.64 443.43 471.916C444.367 484.114 444.826 496.347 445.502 508.565C446.159 520.45 446.819 532.335 447.508 544.219C447.739 548.212 451.642 550.143 455.235 548.502C456.754 547.808 458.994 547.711 460.564 548.281C466.598 550.474 469.297 550.115 473.148 545.252C473.877 544.332 473.365 542.344 473.249 540.863C473.123 539.245 472.093 537.293 472.689 536.104C474.141 533.206 476.364 535.151 477.669 536.381C481.227 539.736 482.545 535.13 484.97 534.615C484.499 533.124 484.197 531.549 483.509 530.166C482.826 528.795 479.804 527.728 482.694 526.086C484.113 525.279 486.306 525.527 488.084 525.771C489.22 525.927 490.245 527.5 491.304 527.482C494.385 527.429 499.196 520.089 498.424 517.01C497.318 512.599 497.902 512.541 502.412 512.751C504.665 512.856 507.258 510.76 509.246 509.114C510.145 508.37 510.715 505.648 510.114 504.93C506.259 500.332 510.308 500.399 513.5 500.085ZM761 454.585C757.28 452.605 754.625 453.043 753.415 457.615C753.202 458.422 751.787 459.551 751.091 459.446C749.965 459.275 748.863 458.317 747.988 457.453C747.679 457.147 747.803 455.768 748.172 455.509C753.179 451.993 750.7 451.582 746.642 451.536C745.444 451.523 744.207 451.029 743.064 450.566C739.035 448.929 735.172 447.557 731.613 451.743C731.143 452.296 728.088 451.83 727.769 451.132C726.196 447.693 723.572 446.81 720.122 446.504C716.865 446.215 713.676 445.208 710.442 444.594C702.407 443.069 700.194 444.82 700.548 453.103C701.02 464.167 702.1 475.211 702.371 486.277C702.482 490.818 702.812 494.68 706.85 497.497C709.307 499.211 709.026 500.705 706.388 502.429C705.243 503.178 704.193 505.812 704.65 506.986C707.195 513.511 710.506 519.408 716.599 523.719C722.772 528.087 729.133 532.795 733.707 538.679C741.012 548.076 749.721 551.449 761.345 550.759C774.132 549.999 786.999 550.629 799.831 550.541C801.862 550.527 803.878 549.752 805.919 549.627C808.633 549.46 811.372 549.46 814.085 549.627C816.126 549.752 818.143 550.532 820.173 550.541C837.672 550.618 855.171 550.671 872.668 550.496C875.398 550.469 878.391 549.748 880.757 548.436C882.811 547.297 884.014 546.544 886.657 547.4C891.516 548.972 893.261 546.84 892.503 541.438C891.993 537.803 894.357 536.759 896.977 537.716C900.374 538.956 902.241 537.411 904.268 535.334C906.945 532.591 909.785 529.998 912.332 527.142C913.171 526.201 913.318 524.642 913.781 523.366C911.976 523.317 910.113 522.981 908.39 523.331C907.437 523.525 906.852 525.16 905.858 525.618C904.65 526.175 902.808 526.787 901.936 526.249C901.026 525.688 900.688 523.806 900.578 522.463C900.485 521.318 901.614 519.915 901.263 518.979C899.829 515.165 888.623 512.761 885.254 515.254C884.334 515.935 882.675 516.688 881.961 516.298C881.127 515.842 880.245 513.794 880.618 513.091C882.658 509.247 879.814 508.655 877.4 507.569C874.588 506.305 871.54 505.307 869.121 503.491C865.819 501.012 863.508 501.312 861.02 504.446C860.296 505.357 858.77 505.631 857.612 506.197C856.911 504.49 855.13 502.095 855.701 501.198C857.862 497.808 855.438 496.904 853.433 495.592C851.21 494.136 848.934 492.76 846.719 491.291C843.948 489.454 841.409 488.488 838.738 491.688C837.923 492.664 836.077 492.78 834.704 493.289C834.302 491.789 833.094 489.835 833.638 488.866C836.151 484.386 832.575 483.32 830.035 481.652C828.614 480.72 827.012 480.064 825.584 479.141C822.714 477.288 820.09 476.599 817.635 479.864C817.045 480.648 815.839 480.968 814.917 481.502C814.444 480.365 813.294 478.975 813.609 478.13C815.86 472.079 810.925 470.438 807.439 469.234C792.401 464.039 777.164 459.416 761 454.585ZM1116.5 402.085C1117.19 392.957 1112.16 389.207 1107.19 388.746C1101.08 388.18 1094.85 388.897 1088.68 388.883C1079.08 388.862 1069.48 388.863 1059.9 388.49C1056.66 388.364 1048.76 392.514 1048.53 395.403C1048.1 400.753 1047.61 406.114 1047.55 411.475C1047.4 423.298 1047.5 435.124 1047.5 446.949C1047.5 452.605 1049.07 454.219 1054.15 452.36C1056.08 451.655 1057.06 448.385 1058.51 446.314C1059.17 445.368 1059.81 443.933 1060.69 443.731C1061.72 443.496 1063.4 444.018 1064.09 444.821C1065.8 446.83 1064.23 452.767 1061.69 453.813C1058.18 455.263 1057.79 457.507 1059.04 460.718C1059.38 461.571 1059.3 463.116 1058.75 463.666C1057.81 464.591 1055.49 465.734 1055.24 465.456C1054.05 464.123 1053.46 462.279 1052.47 460.743C1051.72 459.59 1050.73 457.873 1049.74 457.796C1048.73 457.717 1046.66 459.306 1046.64 460.203C1046.41 469.691 1045.87 479.238 1046.65 488.666C1047.69 501.185 1050.14 513.582 1051.4 526.09C1052.41 536.084 1052.01 536.183 1059.8 538.324C1061.34 538.747 1063.18 538.149 1064.68 538.642C1079.82 543.632 1095.47 542.593 1111.01 542.453C1112.85 542.437 1115.91 540.927 1116.26 539.557C1117.27 535.647 1117.31 531.458 1117.46 527.369C1117.63 522.988 1117.5 518.596 1117.5 514.209C1117.5 513.376 1117.65 512.509 1117.48 511.716C1114.97 500.52 1112.81 489.341 1113.38 477.716C1113.71 471.058 1112.71 464.343 1112.58 457.649C1112.54 455.682 1113.51 453.712 1113.81 451.712C1113.9 451.061 1113.43 449.807 1112.99 449.687C1111.02 449.15 1108.96 448.594 1106.94 448.646C1100.41 448.817 1093.88 449.129 1087.37 449.628C1082.9 449.971 1079.24 451.317 1080.4 457.191C1080.6 458.183 1079.52 459.43 1079.03 460.559C1077.77 459.988 1076.09 459.743 1075.35 458.777C1073.97 456.961 1073.56 454.305 1071.99 452.763C1069.29 450.111 1072.05 449.155 1073.27 448.712C1076.18 447.653 1079.37 447.387 1082.37 446.517C1083.53 446.181 1084.94 445.302 1085.42 444.285C1087.38 440.061 1089.14 439.586 1092.81 443.016C1094.53 444.621 1098.25 444.443 1101.03 444.345C1101.9 444.315 1103.24 441.948 1103.38 440.558C1103.6 438.124 1103.95 435.915 1106.84 436.763C1108.02 437.111 1108.6 439.45 1109.51 440.843C1110.34 442.118 1111.26 443.34 1112.14 444.585C1112.93 443.248 1113.76 441.935 1114.47 440.556C1114.67 440.16 1114.5 439.572 1114.5 439.073C1114.5 432.796 1114.24 426.506 1114.58 420.248C1114.88 414.509 1115.83 408.805 1116.5 402.085ZM357.5 401.085C353.206 397.93 350.402 398.556 349.444 402.498C346.435 414.887 344.433 427.723 339.699 439.439C333.837 453.945 333.919 468.3 336.643 482.909C338.951 495.29 342.185 507.53 345.636 519.653C347.307 525.525 347.189 532.482 353.036 536.521C354.659 537.642 357.833 541.601 357.61 535.128C357.582 534.307 358.958 532.885 359.856 532.729C360.903 532.546 362.139 533.448 363.293 533.879C362.842 534.801 362.244 535.683 361.979 536.656C361.676 537.768 361.348 539.887 361.586 539.97C363.193 540.527 365.171 541.28 366.593 540.766C368.154 540.2 369.088 538.083 370.608 537.153C371.362 536.692 373.087 537.028 373.874 537.643C374.579 538.194 375.202 540.135 374.825 540.574C372.826 542.905 372.39 545.064 375.394 546.514C378.409 547.968 381.639 548.969 384.541 545.803C385.72 544.516 387.355 543.645 388.782 542.585C389.355 544.138 389.686 545.849 390.569 547.199C391.427 548.512 392.85 549.455 394.025 550.561C395.517 548.346 397.774 546.311 398.341 543.88C399.531 538.781 399.986 533.488 400.469 528.25C401.567 516.344 403.073 504.438 403.366 492.506C403.809 474.471 404.712 456.331 397.602 438.974C394.334 430.996 392.712 422.326 389.239 414.456C387.793 411.178 383.662 408.847 380.302 406.838C379.563 406.397 376.948 409.214 375.126 410.424C374.045 411.142 372.825 411.65 371.667 412.252C370.944 410.552 369.151 408.308 369.689 407.248C371.823 403.041 367.854 402.848 366.2 402.142C365.172 401.703 362.896 403.483 361.578 404.698C360.793 405.421 361.065 407.21 360.346 408.105C359.506 409.15 358.105 409.743 356.947 410.532C356.131 408.871 354.774 407.24 354.678 405.538C354.607 404.268 356.167 402.906 357.5 401.085ZM1029.5 501.085C1029.83 497.891 1030.4 494.7 1030.45 491.501C1030.59 483.224 1030.58 474.943 1030.4 466.668C1030.38 465.625 1028.99 463.767 1028.2 463.748C1026.05 463.698 1023.89 464.431 1021.73 464.854C1022.17 466.11 1022.94 467.362 1022.96 468.622C1022.98 470.541 1022.48 472.466 1022.2 474.388C1020.63 473.393 1018.1 472.689 1017.69 471.345C1016.7 468.058 1014.4 466.59 1011.95 467.774C1008.81 469.286 1003.67 468.725 1003.43 474.36C1003.35 476.121 1002.4 477.845 1001.85 479.585C1000.4 478.351 998.242 477.386 997.647 475.827C996.401 472.56 993.907 473.393 991.966 473.76C989.284 474.269 986.767 475.627 984.164 476.579C981.003 477.736 979.208 479.183 981.193 483.025C981.85 484.296 980.606 486.55 980.231 488.354C978.622 487.233 976.954 486.184 975.436 484.951C974.887 484.505 974.821 483.506 974.324 482.948C971.38 479.646 968.809 482.993 966.303 483.804C965.434 484.085 965.122 486.874 965.026 488.545C964.921 490.352 965.366 492.19 965.571 494.015C963.628 493.453 961.519 493.193 959.792 492.241C958.186 491.355 956.942 488.621 954.971 490.832C953.727 492.226 953.307 494.578 953.058 496.567C952.837 498.34 953.361 500.206 953.555 502.03C951.849 501.694 950.149 501.128 948.434 501.079C946.303 501.017 943.801 500.792 942.16 501.789C941.211 502.367 941.249 505.276 941.534 507.023C942.105 510.53 940.362 512.297 936.783 511.369C933.14 510.424 923.133 518.474 923.572 522.047C923.62 522.435 924.213 522.744 924.523 523.114C927.435 526.591 931.81 526.232 934.89 522.935C936.069 521.675 938.651 521.725 940.593 521.179C940.255 522.788 940.401 524.784 939.484 525.93C937.177 528.813 937.718 530.036 940.949 531.726C944.854 533.768 948.286 535.532 952.921 533.745C954.916 532.976 958.847 532.559 956.602 537.454C956.11 538.527 956.417 540.68 957.214 541.486C958.958 543.248 961.14 544.675 963.347 545.859C966.916 547.775 970.203 552.673 974.864 547.053C975.462 546.332 978.581 547.489 980.434 548.08C982.478 548.732 984.396 550.432 986.392 550.471C998.218 550.703 1010.05 550.6 1021.88 550.578C1026.11 550.57 1028.36 548.311 1028.48 544.158C1028.87 530.135 1029.17 516.11 1029.5 501.085ZM653 550.585C657.993 550.585 663.006 550.873 667.974 550.522C676.683 549.906 679.008 545.87 676.746 538.314C676.565 537.711 676.596 537.048 676.497 536.418C674.501 523.765 672.813 511.049 670.247 498.513C669.706 495.866 666.302 493.178 663.566 491.789C661.009 490.49 658.347 491.963 657.154 495.231C656.916 495.882 654.792 495.844 653.537 496.123C653.433 494.868 652.812 492.796 653.305 492.484C659.275 488.707 653.928 488.062 651.761 486.596C650.212 485.547 648.336 484.85 647.067 483.547C644.24 480.643 641.744 479.664 638.955 483.528C638.582 484.045 637.148 484.401 636.659 484.098C635.761 483.541 634.927 482.522 634.628 481.526C634.498 481.095 635.719 479.728 636.402 479.67C640.866 479.289 638.217 477.56 636.898 476.649C635.141 475.437 633.132 474.079 631.122 473.877C628.698 473.633 624.971 471.603 624.326 476.734C624.229 477.502 621.805 477.976 620.458 478.585C620.138 477.309 619.787 476.04 619.509 474.755C619.209 473.373 618.977 471.976 618.715 470.585C617.31 471.666 615.473 472.483 614.613 473.895C613.605 475.547 613.348 477.697 612.939 479.667C611.093 488.562 609.31 497.471 607.498 506.374C607.092 508.367 606.971 510.487 606.184 512.319C603.678 518.157 602.276 524.37 604.69 530.186C607.166 536.151 611.129 541.507 614.556 547.059C614.988 547.759 616.062 548.287 616.925 548.458C620.944 549.251 624.976 550.322 629.038 550.493C636.679 550.814 644.345 550.585 653 550.585ZM1396 234.585C1393.45 233.919 1390.9 232.687 1388.35 232.694C1381.33 232.713 1374.29 232.958 1367.33 233.765C1365.26 234.006 1362.92 236.031 1361.6 237.88C1357.79 243.23 1359.77 249.446 1359.77 255.337C1359.75 265.792 1360.78 276.355 1359.59 286.668C1358.61 295.209 1360.57 300.018 1367.85 298.443C1374.87 296.924 1381.21 299.471 1387.74 300.541C1393.34 301.459 1396.85 300.954 1397.24 295.2C1397.98 284.4 1397.19 273.497 1397.05 262.636C1397.01 259.288 1397.07 255.938 1396.98 252.592C1396.83 246.756 1399.79 240.833 1396 234.585ZM1441.5 239.085C1439.31 233.677 1434.9 233.206 1429.87 233.522C1425.82 233.775 1422.39 232.078 1423.11 239.622C1424.46 253.71 1423.41 268.019 1423.55 282.234C1423.59 287.429 1423.89 292.662 1424.68 297.784C1424.9 299.223 1427.28 301.394 1428.69 301.406C1435.77 301.464 1442.86 301.003 1449.93 300.564C1458.72 300.019 1463.06 293.654 1461.63 284.666C1461.05 281.047 1461.87 277.194 1462.14 273.455C1462.84 264.025 1463.51 257.491 1454.56 251.875C1449.66 248.806 1445.82 244.07 1441.5 239.085ZM1238.5 266.085C1239.05 257.89 1240.01 249.864 1244.73 242.701C1246.18 240.496 1246.52 237.553 1247.36 234.949C1245.2 234.828 1243.03 234.706 1240.86 234.587C1240.69 234.577 1240.53 234.599 1240.36 234.583C1233.49 233.919 1226.62 232.892 1219.73 232.672C1209.96 232.359 1199.54 246.37 1201.4 256.026C1203.2 265.362 1204.4 274.832 1205.41 284.292C1206.01 289.879 1210.37 294.112 1215.88 293.611C1220.89 293.156 1225.93 292.52 1230.93 292.718C1234.6 292.864 1236.07 291.052 1236.43 288.198C1237.32 281.186 1237.83 274.126 1238.5 266.085ZM634.5 376.085C634.5 380.415 635.362 384.961 634.341 389.035C631.105 401.946 627.2 414.69 623.483 427.478C622.096 432.251 623.077 434.141 628.024 435.586C631.567 436.62 635.454 434.372 636.587 431.049C637.039 429.724 638.46 428.73 639.44 427.585C640.127 428.857 640.82 430.125 641.498 431.401C642.236 432.792 642.692 435.104 643.74 435.41C646.617 436.251 649.735 436.451 652.768 436.54C657.557 436.681 658.255 435.396 657.107 430.621C656.294 427.242 655.573 423.733 655.591 420.286C655.63 412.762 656.306 405.244 656.469 397.718C656.762 384.249 653.408 371.419 649.173 358.786C647.412 353.53 645.387 348.362 643.56 343.128C642.07 338.86 639.978 340.303 638.072 342.615C637.234 343.631 636.958 345.132 636.508 346.441C633.288 355.807 634.861 365.515 634.5 376.085ZM384.5 395.085C381.167 381.833 377.951 368.55 374.456 355.341C372.363 347.431 369.996 339.582 367.373 331.834C366.799 330.138 364.418 327.707 363.216 327.89C361.478 328.155 360.006 330.446 358.528 331.976C358.02 332.501 357.623 333.31 357.533 334.034C356.807 339.903 356.155 345.781 355.503 351.659C354.161 363.743 352.82 375.827 351.508 387.914C351.112 391.561 352.849 393.68 356.349 394.613C358.275 395.126 360.098 396.024 362.018 396.566C368.425 398.376 374.84 400.165 381.29 401.813C382.672 402.166 384.214 401.889 385.683 401.902C385.622 400.657 385.664 399.394 385.461 398.172C385.34 397.443 384.833 396.779 384.5 395.085ZM666.5 478.085C664.497 466.75 662.548 455.404 660.364 444.103C660.23 443.413 658.195 442.622 657.125 442.724C656.191 442.813 655.266 444.007 654.526 444.874C653.54 446.029 652.737 447.341 651.855 448.585C651.07 447.078 650.235 445.593 649.516 444.055C648.993 442.936 648.789 440.851 648.157 440.734C644.687 440.089 641.109 439.546 637.608 439.727C635.549 439.833 631.969 439.666 633.35 444.081C633.618 444.938 631.949 446.402 631.173 447.585C629.949 446.322 628.026 445.229 627.666 443.754C627.145 441.618 627.487 438.975 624.365 439.726C622.568 440.159 620.184 441.706 619.675 443.274C618.183 447.867 617.386 452.701 616.527 457.478C615.263 464.508 620.302 468.771 625.497 467.484C627.214 467.059 628.512 465.085 630.233 464.495C631.868 463.935 633.806 464.26 635.611 464.196C635.379 465.354 634.995 466.507 634.951 467.672C634.887 469.353 634.463 471.45 635.267 472.649C637.13 475.429 643.97 475.468 647.158 473.602C648.349 472.905 650.272 473.462 651.861 473.447C651.698 474.702 651.638 475.983 651.342 477.207C651.054 478.398 650.062 480.498 650.169 480.55C655.307 483.008 660.496 485.376 665.806 487.425C666.256 487.598 668.309 485.526 668.341 484.459C668.4 482.516 667.5 480.545 666.5 478.085ZM1155.5 331.085C1155.5 334.08 1156.29 337.366 1155.32 340.003C1153.84 344.021 1156.19 345.789 1158.74 346.147C1167.19 347.33 1175.74 348.504 1184.23 348.392C1192.48 348.283 1200.69 346.374 1208.96 345.683C1212.57 345.382 1214.92 344.209 1215.46 340.599C1216.08 336.515 1212.95 335.148 1209.97 334.694C1205.12 333.957 1200.16 333.576 1195.26 333.659C1186.07 333.816 1179.72 327.631 1172.39 323.748C1169.62 322.277 1167.68 321.025 1165.05 323.471C1164.41 324.061 1163.38 324.542 1162.53 324.531C1158.62 324.483 1156.34 326.326 1155.5 331.085ZM938.5 538.085C938.833 537.725 939.167 537.364 939.5 537.004C936.742 534.864 934.22 532.238 931.147 530.746C928.871 529.642 926.603 531.009 925.377 533.751C924.966 534.671 923.125 534.951 921.938 535.523C921.458 534.225 920.682 532.946 920.6 531.624C920.542 530.682 921.561 529.721 921.835 528.698C922.093 527.731 922.005 526.673 922.069 525.655C921.051 525.96 919.734 525.96 919.061 526.618C912.188 533.339 905.392 540.139 898.664 547.005C897.976 547.707 897.874 548.982 897.5 549.99C898.397 550.189 899.293 550.558 900.19 550.56C916.649 550.595 933.109 550.709 949.565 550.473C952.554 550.429 955.522 548.915 958.5 548.08C956.423 546.338 954.343 544.6 952.27 542.854C949.397 540.433 946.746 539.279 943.578 542.792C942.444 544.049 939.597 545.121 938.25 544.558C934.961 543.184 936.944 540.672 938.5 538.085ZM1058 328.585C1058.17 329.873 1058.85 331.376 1058.42 332.414C1055.29 339.919 1060.62 344.222 1064.53 349.033C1065.16 349.803 1066.45 350.604 1067.33 350.499C1072.35 349.903 1077.4 349.307 1082.3 348.154C1085.03 347.512 1086.92 345.559 1086.55 342.101C1086.02 337.112 1085.97 332.07 1085.38 327.09C1085.27 326.16 1083.61 324.739 1082.62 324.697C1077.1 324.464 1071.52 324.225 1066.03 324.743C1063.44 324.989 1061.01 326.919 1058 328.585ZM1130 325.585C1127.04 324.292 1124.18 322.652 1121.1 321.77C1112.35 319.26 1105.5 324.576 1105.5 333.614C1105.5 336.111 1105.48 338.609 1105.5 341.106C1105.55 345.758 1108.46 348.231 1113.06 347.589C1115.58 347.237 1118.15 347.098 1120.63 346.545C1124.74 345.627 1129.45 345.527 1128.67 338.894C1128.34 336.124 1129.93 333.156 1130.46 330.244C1130.7 328.9 1130.5 327.474 1130 325.585ZM358.5 551.085C361.759 551.252 365.016 551.459 368.276 551.555C369.012 551.576 369.759 551.209 370.5 551.021C370.015 550.224 369.719 549.035 369.013 548.693C364.585 546.552 360.112 544.481 355.536 542.686C354.616 542.325 353.19 543.254 351.998 543.588C352.371 544.627 352.474 545.929 353.176 546.649C354.614 548.126 356.373 549.292 358.5 551.085ZM1119 449.585C1119.83 448.854 1120.67 448.124 1121.5 447.393C1121.04 447.124 1120.21 446.564 1120.16 446.63C1119.54 447.394 1119.04 448.252 1119 449.585Z" fill="#660000"/>
</svg>
