<svg width="2043" height="1378" viewBox="0 0 2043 1378" fill="none" xmlns="http://www.w3.org/2000/svg">
<path d="M2038 52.0434C2038 171.543 2038 291.043 2037.75 410.793C2036.67 412.029 2035.73 412.945 2035.02 414.01C2027.22 425.637 2023.82 439.054 2020.12 452.229C2015.02 470.374 2011.58 489.033 2001.28 505.329C1999.9 507.518 1998.83 509.983 1998.05 512.458C1995.91 519.237 1993.78 526.033 1992.08 532.931C1990.99 537.373 1990.61 541.999 1990.05 546.56C1989.95 547.345 1990.53 548.213 1990.8 549.043C1991.55 548.524 1992.4 548.103 1993.04 547.469C1998.22 542.343 2002.8 536.382 2008.65 532.203C2017.99 525.531 2028.17 520.036 2038 514.043C2038 530.877 2038 547.71 2037.75 564.793C2032.91 568.043 2028.09 570.747 2023.78 574.104C2014.31 581.472 2007.01 589.979 2007.75 603.313C2007.94 606.776 2005.64 610.839 2003.45 613.869C1999.74 618.981 1994.42 623.015 1991.16 628.349C1984.56 639.171 1978.63 650.432 1972.98 661.787C1971.2 665.371 1969.87 670.108 1970.66 673.828C1971.84 679.431 1974.4 685.045 1977.58 689.85C1981.68 696.027 1983.07 702.187 1980.94 709.122C1980.36 711.004 1978.94 712.613 1978.01 714.403C1971.19 727.573 1964.86 741.02 1957.48 753.866C1949.71 767.393 1943.24 781.2 1942.02 796.963C1940.94 810.872 1940.46 824.846 1938.83 838.687C1937.85 847 1936.47 855.728 1932.96 863.182C1925.72 878.546 1923.14 894.821 1921.16 911.25C1919.96 921.172 1919.94 931.29 1920.1 941.307C1920.3 953.115 1917.06 964.167 1914.24 975.402C1912.11 983.917 1910.68 992.611 1909.01 1001.24C1907.73 1007.89 1906.69 1014.58 1905.3 1021.2C1903.13 1031.51 1896.3 1039.04 1889.82 1046.79C1886.67 1050.56 1883.55 1054.45 1881.08 1058.67C1875.51 1068.15 1870.14 1077.76 1865.11 1087.54C1860.8 1095.9 1856.16 1104.16 1854.94 1113.83C1853.25 1127.2 1846.62 1138.1 1837.13 1147.43C1833.23 1151.26 1829.39 1155.16 1825.52 1159.02C1821.53 1163.01 1817.97 1167.58 1813.46 1170.84C1806.98 1175.52 1802.17 1181.2 1800.08 1188.79C1797.72 1197.36 1796.6 1206.3 1793.84 1214.73C1790.7 1224.36 1786.41 1233.63 1782.51 1243.01C1779.8 1249.51 1777.7 1255.92 1779.92 1263.16C1781.97 1269.85 1783.73 1276.69 1784.88 1283.58C1785.87 1289.5 1786.99 1291.04 1793.06 1291.04C1874.71 1291.04 2028.75 1286.96 2037.75 1295.5C2045.25 1330.46 2043 1374.5 2037.75 1376.5C1954.3 1376.75 1871.09 1377.04 1787.89 1377.04C1563.55 1377.04 1339.2 1377.04 1114.86 1377.04C1108.31 1377.04 1101.75 1377.16 1095.2 1377.02C1084.95 1376.79 1074.7 1376.14 1064.45 1376.12C1056.09 1376.09 1047.73 1376.9 1039.37 1376.97C1034.18 1377.02 1028.98 1376.12 1023.79 1376.12C1018.59 1376.12 1013.39 1377.03 1008.2 1376.98C997.785 1376.87 987.37 1376.1 976.953 1376.08C748.142 1375.7 519.331 1375.34 290.521 1375.06C196.375 1374.95 102.229 1375.04 8.08392 1375.09C5.38911 1375.09 2.69464 1375.71 5e-06 1376.04C2e-06 1347.54 1.99676e-06 1319.04 0.250002 1290.29C5.5736 1293.7 11.0241 1291.32 15.9664 1290.2C18.6733 1289.59 21.699 1286.29 22.823 1283.5C27.6481 1271.5 27.3407 1258.64 27.995 1245.97C28.2008 1241.99 27.7807 1237.88 28.6329 1234.05C30.7905 1224.34 33.5148 1214.76 35.9921 1205.12C36.3812 1203.61 37.0552 1202.04 36.9301 1200.55C36.4297 1194.59 35.1215 1188.65 35.146 1182.7C35.173 1176.14 36.3091 1169.59 37.0342 1163.04C37.1143 1162.32 37.6402 1161.63 38.0043 1160.95C40.4922 1156.32 42.8636 1151.61 45.5139 1147.07C51.9173 1136.1 62.2573 1128.81 70.9227 1119.93C76.1836 1114.55 81.5914 1108.66 84.6681 1101.95C88.1133 1094.45 89.6691 1085.86 90.8476 1077.57C92.7482 1064.21 93.4958 1050.69 95.0599 1037.27C96.1057 1028.3 97.3118 1019.31 99.1842 1010.48C101.708 998.586 103.753 986.71 104.132 974.508C104.296 969.212 106.028 963.979 106.778 958.679C107.008 957.061 106.371 955.311 106.076 953.631C105.875 952.484 105.02 951.084 105.417 950.259C108.197 944.487 106.217 938.472 105.732 932.85C104.559 919.277 101.921 905.834 100.026 892.318C98.5638 881.89 97.4055 871.421 95.9832 860.987C93.8062 845.017 94.3067 829.351 100.269 814.095C100.918 812.435 100.401 808.727 99.3762 808.257C91.2686 804.539 82.9536 801.252 74.6076 798.082C67.78 795.489 62.6328 791.354 61.4213 783.866C60.6224 778.929 62.4169 774.412 66.3658 771.286C70.4295 768.069 75.0048 765.503 79.1232 762.348C84.8623 757.952 90.4697 753.37 95.9266 748.63C96.9861 747.71 97.9673 744.881 97.4724 744.355C96.3159 743.125 94.1462 741.979 92.5531 742.171C83.1052 743.316 73.5273 744.135 64.3284 746.417C49.156 750.179 34.2081 754.868 19.2287 759.377C12.7382 761.33 6.40476 763.805 3e-06 766.043C2e-06 721.21 1.99676e-06 676.377 0.249999 631.293C5.46569 627.744 10.368 624.344 15.4136 621.172C21.3558 617.437 27.696 614.375 26.2659 605.258C25.9353 603.151 28.4439 599.897 30.5067 598.246C36.738 593.26 43.8846 589.841 51.7303 588.044C61.9277 585.708 72.0756 583.118 82.3381 581.116C92.5807 579.118 102.923 577.605 113.252 576.084C119.275 575.196 125.372 574.817 131.411 574.02C142.894 572.505 154.365 571.78 165.651 575.086C173.148 577.282 178.987 585.113 179 592.353C179.017 602.032 174.792 608.458 165.602 610.937C156.396 613.42 146.903 614.82 137.639 617.11C129.525 619.116 121.538 621.645 113.54 624.091C112.551 624.393 111.84 625.604 111 626.394C112.076 626.944 113.2 628.045 114.221 627.956C122.536 627.234 130.85 626.432 139.127 625.367C146.188 624.457 153.175 622.492 160.24 622.238C166.93 621.998 173.744 622.994 180.385 624.135C189.792 625.752 199.13 627.833 208.426 630.02C220.545 632.872 232.52 636.369 244.694 638.945C256.574 641.458 267.546 645.85 276.356 654.127C284.296 661.586 292.23 668.413 303.666 669.177C306.241 669.349 308.924 669.543 311.413 669.029C316.4 667.998 312.907 664.622 313.034 662.181C313.585 651.599 309.491 642.425 303.844 634.018C301.437 630.435 297.689 626.127 293.913 625.384C280.947 622.831 267.713 621.59 254.555 620.085C245.629 619.064 236.859 617.922 228.936 613.09C219.968 607.62 217.535 598.754 224.402 591.438C229.841 585.642 236.393 580.777 242.901 576.128C252.066 569.58 254.517 564.652 251.055 553.541C250.033 550.262 249.275 546.801 249.078 543.384C248.603 535.173 245.43 528.065 241.597 520.944C238.478 515.149 236.312 508.81 234.052 502.592C231.941 496.789 231.303 490.197 228.187 485.063C220.719 472.762 210.216 463.784 195.463 461.091C193.529 460.738 191.466 461.17 189.483 460.999C182.586 460.404 175.676 459.003 168.811 459.219C160.038 459.495 151.295 461.937 142.556 461.838C128.747 461.681 119.509 470.473 109.467 477.385C101.009 483.207 98.8902 493.817 93.9056 502.286C87.8068 512.647 81.3729 522.865 68.0754 525.579C63.0145 526.612 60.7055 525.838 59 520.783C54.9166 508.679 60.2343 493.354 70.6202 485.987C77.8995 480.823 84.8414 475.178 91.8294 469.616C92.8511 468.803 94.1629 466.786 93.8187 466.151C93.099 464.823 91.3882 463.238 90.0412 463.198C86.303 463.086 82.4426 463.282 78.8115 464.131C70.8982 465.981 63.1693 468.892 58.1702 475.597C53.8337 481.412 49.105 486.218 42.4156 489.248C37.6312 491.414 33.0599 494.14 28.6332 496.989C21.5061 501.575 20.0968 503.411 23.9617 510.808C27.334 517.262 28.9372 523.826 22.9895 529.874C21.4677 531.421 19.9496 533.026 18.2003 534.285C12.1884 538.614 6.07484 542.802 0 547.043C2e-06 500.543 1.99676e-06 454.043 0.250004 407.293C7.29084 401.71 13.8987 396.118 20.9381 391.136C25.4742 387.926 29.544 384.683 29.9599 378.776C30.5076 370.998 33.8095 364.736 39.7402 359.822C47.0467 353.769 54.2082 347.512 61.8046 341.841C77.4771 330.142 95.0685 324.137 114.825 324.98C117.667 325.102 120.538 324.185 123.408 324.076C138.197 323.512 151.648 317.486 165.664 313.784C166.588 313.54 167.228 312.223 168 311.404C167.161 310.617 166.338 309.168 165.48 309.147C158.095 308.966 150.673 308.617 143.32 309.134C128.685 310.162 114.094 311.789 99.4691 312.981C96.2668 313.242 92.9454 313.734 90.8685 309.62C88.872 305.666 91.1811 302.995 93.0007 300.76C99.7709 292.445 107.038 284.536 114.072 276.433C114.982 275.385 115.613 274.094 116.373 272.916C114.798 272.958 113.125 272.672 111.668 273.107C107.831 274.252 104.062 275.641 100.312 277.057C89.9107 280.982 78.8108 283.818 71.5054 293.126C66.4291 299.594 62.2651 306.817 56.8799 312.993C50.9727 319.768 44.8191 326.731 37.4971 331.752C30.647 336.449 22.2082 338.921 14.3107 341.963C9.70045 343.738 4.78058 344.71 5e-06 346.043C2e-06 334.543 1.99676e-06 323.043 0.250007 311.293C1.92874 310.377 3.29729 309.363 4.79657 309.103C11.3576 307.964 17.9694 307.118 24.5321 305.988C26.0825 305.721 28.8428 304.563 28.7815 304.157C28.4191 301.757 28.0389 298.718 26.4276 297.302C24.096 295.253 20.6732 294.478 17.7812 293.029C9.28244 288.772 4.23866 284.678 4.88231 278.243C5.44921 272.575 9.27767 269.799 13.2226 267.105C18.3504 263.602 22.9502 259.725 26.0118 254.22C27.6731 251.233 29.0051 247.903 31.2564 245.429C44.2988 231.096 59.9983 220.207 76.9655 211.05C81.2868 208.718 84.9516 205.672 85.9143 200.673C86.6741 196.727 86.8765 192.637 86.9606 188.604C87.2114 176.569 98.4253 164.919 110.428 165.135C121.128 165.328 127.931 159.641 134.065 151.846C141.253 142.711 145.6 131.697 155.175 124.028C170.076 112.094 186.544 105.308 205.464 104.033C219.803 103.066 233.822 105.683 247.779 108.181C257.674 109.953 267.345 112.796 274.515 120.919C278.026 124.897 282.678 126.602 288.352 126.155C297.143 125.464 304.401 121.228 311.527 116.876C322.356 110.263 333.652 105.754 346.554 106.021C352.717 106.149 358.906 106.36 365.046 105.956C371.477 105.534 376.599 108.926 378.636 113.643C382.443 122.457 389.346 126.395 397.214 130.148C402.805 132.815 408.03 136.378 409.579 143.129C411.385 150.996 417.071 155.673 423.692 158.952C441.167 167.606 459.75 173.359 478.337 179.109C492.339 183.442 506.31 187.966 520.011 193.156C534.256 198.553 548.209 204.738 562.163 210.869C564.446 211.873 567.539 214.325 567.605 216.2C567.677 218.255 565.1 221.15 562.939 222.41C551.967 228.805 540.74 234.759 529.654 240.961C528.586 241.559 527.257 242.75 527.178 243.754C527.103 244.71 528.291 246.204 529.302 246.721C531.895 248.048 534.628 249.215 537.429 250.002C555.5 255.082 573.627 259.966 591.681 265.104C595.619 266.225 599.728 267.99 599.921 272.966C600.112 277.891 595.884 280.013 592.316 280.858C582.971 283.073 573.464 285.038 563.917 285.839C555.972 286.505 547.854 285.651 539.858 284.948C534.387 284.467 528.941 283.317 523.577 282.064C510.887 279.101 498.318 275.645 485.082 275.997C475.923 276.24 466.744 275.817 457.588 276.102C446.586 276.445 436.064 274.338 425.925 270.4C410.976 264.594 396.179 260.783 379.738 264.759C368.445 267.49 364.706 280.219 366.671 288.043C367.227 290.257 369.023 292.794 370.975 293.893C375.377 296.371 380.153 298.262 384.92 300C396.646 304.276 409.171 305.924 420.142 312.843C429.663 318.847 439.048 324.41 445.04 334.447C449.068 341.193 453.516 347.786 458.57 353.777C460.779 356.396 465.253 359.131 468.212 358.673C474.49 357.7 479.345 353.732 482.144 347.273C484.598 341.61 487.251 335.351 491.634 331.345C501.806 322.048 513.848 315.094 526.745 310.18C536.408 306.498 546.448 303.657 556.507 301.208C563.581 299.486 570.955 298.935 578.221 298.069C591.317 296.508 603.166 301.359 615.064 305.652C629.653 310.917 644.445 314.215 659.978 310.956C662.005 310.531 663.987 309.172 665.643 307.821C672.151 302.507 678.411 296.887 684.972 291.642C691.278 286.601 693.251 283.036 690.775 276.531C688.961 271.764 690.539 268.181 693.435 265.355C696.781 262.09 700.699 258.802 704.993 257.244C714.15 253.922 723.752 251.848 733.094 249.009C745.514 245.235 757.917 241.382 770.188 237.158C772.463 236.375 774.079 233.678 776 231.864C774.093 229.85 772.528 227.211 770.213 225.939C763.556 222.283 756.608 223.804 749.74 225.786C739.376 228.776 729.236 233.291 718.251 232.925C704.675 232.472 691.65 228.744 679.01 223.962C672.946 221.668 670.31 217.214 672.15 211.349C675.328 201.218 676.768 190.486 682.923 181.31C689.717 171.181 698.696 163.882 709.709 159.093C723.827 152.954 738.241 147.484 752.274 141.164C773.631 131.544 794.774 121.451 815.991 111.522C817.673 110.735 819.219 109.657 820.829 108.715C819.216 107.654 817.626 106.555 815.976 105.556C815.465 105.247 814.772 105.257 814.196 105.036C808.158 102.715 801.86 100.873 796.21 97.828C793.505 96.3699 790.734 92.7962 790.349 89.8707C789.929 86.6772 791.798 82.9469 796.244 81.9633C798.761 81.4066 801.049 79.8927 803.528 79.0714C811.216 76.5233 818.573 74.6174 822.445 65.5652C825.886 57.5179 834.371 53.1589 842.629 51.2942C854.381 48.6405 866.584 48.0485 878.471 45.8966C884.178 44.8637 890.557 43.5208 894.966 40.1435C905.952 31.7272 917.629 27.2661 931.543 27.9121C938.479 28.2341 945.276 26.2235 951.156 22.3239C967.246 11.6525 985.364 6.99515 1004.09 4.05187C1011.3 2.91863 1018.56 2.07859 1025.73 0.75217C1035.35 -1.02618 1044.63 0.273685 1052.65 5.45647C1061.58 11.2314 1069.6 18.414 1078.23 24.6938C1086.89 30.9963 1095.41 37.6494 1104.7 42.8789C1118.95 50.8933 1135.21 51.8613 1151.05 54.0577C1162.53 55.6509 1174.16 56.6766 1185.43 59.2488C1195.79 61.6144 1206.07 65.1508 1213.32 73.8801C1217.38 78.7742 1218.3 84.4635 1215.63 87.749C1213.39 90.5056 1210.58 92.9017 1207.68 94.9963C1196.52 103.069 1183.49 105.679 1170.18 106.972C1159.66 107.994 1149.08 108.397 1138.52 109.038C1127.13 109.729 1115.73 110.272 1104.36 111.086C1098.45 111.509 1092.56 112.266 1086.7 113.149C1085.69 113.301 1084.89 114.84 1084 115.739C1084.66 116.174 1085.3 116.947 1085.99 116.993C1097.21 117.731 1108.44 118.331 1119.66 119.058C1128.88 119.655 1138.11 120.267 1147.32 121.092C1151.57 121.473 1155.88 121.982 1159.97 123.12C1170.59 126.074 1181.1 127.34 1191.94 124.114C1198.81 122.071 1205.89 119.294 1212.84 119.373C1223.45 119.493 1234.18 121.155 1244.59 123.381C1252.87 125.151 1261.22 127.599 1267.68 133.989C1271.82 138.08 1276.61 141.509 1280.88 145.478C1288.77 152.819 1296.65 160.14 1298.13 171.847C1298.54 175.101 1299.6 179.474 1301.92 181.066C1310.01 186.613 1316.45 194.234 1325.65 198.458C1332.83 201.757 1339.3 207.196 1341.8 214.926C1344.99 224.841 1351.88 230.131 1360.71 234.072C1370.14 238.279 1379.53 242.577 1388.81 247.085C1396.58 250.853 1399.55 257.804 1399.94 265.944C1400.18 270.992 1396.91 274.136 1391.97 274.02C1380.94 273.761 1369.88 273.778 1358.9 272.904C1351.39 272.307 1343.68 271.291 1336.6 268.879C1323.94 264.564 1311.7 259.008 1299.25 254.067C1294.51 252.186 1289.42 249.477 1284.51 252.217C1274.14 257.995 1263.08 261.045 1251.51 263.193C1243.03 264.768 1239.67 264.006 1235.81 256.291C1230.09 244.85 1220.77 239.761 1208.27 240.07C1200.74 240.257 1193.21 240.614 1185.69 241.068C1176.29 241.634 1166.9 242.347 1157.52 243.061C1154.65 243.28 1151.77 243.57 1148.94 244.115C1147.88 244.321 1146.86 245.234 1146.07 246.06C1145.85 246.292 1146.33 247.504 1146.77 248.019C1148.79 250.367 1150.99 252.56 1152.97 254.942C1154.27 256.507 1154.95 259.255 1156.51 259.82C1162.32 261.93 1168.29 263.895 1174.37 264.906C1181.84 266.147 1189.5 266.125 1197.01 267.094C1214.83 269.388 1230.5 277.231 1245.25 286.94C1252.62 291.791 1259.86 294.321 1268.87 292.211C1276.6 290.402 1284.64 289.634 1292.59 289.177C1298.58 288.833 1304.68 289.406 1310.66 290.12C1318.19 291.02 1325.68 292.387 1333.15 293.72C1342.59 295.406 1351.96 297.633 1361.45 298.934C1370.1 300.118 1378.88 300.487 1387.61 301.019C1402.72 301.94 1416.41 307.256 1429.76 313.966C1434.69 316.445 1440.13 317.887 1445.2 320.112C1447.58 321.157 1451.01 322.617 1451.45 324.48C1451.86 326.246 1449.27 329.046 1447.51 330.937C1440.44 338.541 1432.53 345.46 1426.17 353.596C1418.67 363.189 1420.92 365.924 1430.62 370.952C1434.5 372.967 1438.39 374.546 1440.98 378.411C1443.02 381.465 1446.19 382.952 1450.01 383.072C1457.54 383.309 1465.17 383.073 1472.56 384.238C1478.9 385.236 1485.88 385.556 1490.65 391.169C1493.27 394.253 1495.93 397.316 1498.77 400.19C1499.52 400.957 1501.4 401.664 1502.12 401.259C1510.4 396.648 1518.76 392.117 1526.67 386.93C1531.36 383.861 1535.42 379.795 1539.54 375.935C1544.24 371.532 1547.99 365.651 1553.38 362.557C1564.47 356.199 1577.42 355.28 1589.83 354.286C1606.28 352.968 1622.87 353.206 1639.4 353.149C1644.28 353.132 1649.53 353.471 1653.99 355.234C1662.93 358.772 1671.96 356.426 1680.91 357.029C1681.19 357.048 1681.49 356.838 1681.79 356.759C1686.58 355.482 1691.1 352.102 1696.47 355.839C1697.55 356.585 1701.04 355.286 1702.37 353.913C1704.73 351.481 1706 348.037 1708.23 345.442C1711.22 341.952 1714.18 337.905 1718.08 335.878C1721.96 333.863 1721.28 331.959 1719.89 329.514C1716.16 322.95 1717.52 317.652 1724.26 314.322C1730.48 311.252 1736.73 308.225 1743.12 305.54C1745.96 304.348 1749.19 304.133 1752.2 303.321C1761.04 300.936 1769.74 297.732 1778.72 296.312C1784.46 295.406 1788.31 292.728 1791.63 288.789C1795.14 284.639 1794.11 281.218 1788.67 280.216C1784.1 279.375 1779.17 279.461 1774.55 280.161C1763.82 281.787 1753.23 284.309 1742.5 285.934C1734.78 287.105 1725.93 286.161 1723.92 274.189C1723.55 271.976 1722.14 269.946 1721.27 267.806C1718.34 260.564 1714.67 253.377 1719.01 245.412C1720.27 243.094 1721.51 240.73 1723.03 238.584C1729.06 230.083 1734.75 221.077 1744.36 216.124C1753.94 211.179 1762.78 204.851 1774.31 203.748C1783.32 202.888 1791.96 198.706 1800.96 197.199C1814.72 194.899 1827.69 191.149 1838.95 182.6C1847.12 176.395 1848.21 170.454 1842.43 162.004C1837.13 154.273 1829.3 150.119 1820.75 146.979C1819.01 146.342 1816.2 144.758 1816.28 143.831C1816.47 141.874 1817.78 139.195 1819.42 138.331C1832.68 131.369 1846.27 125.047 1859.45 117.947C1869.03 112.782 1878.64 107.389 1887.3 100.859C1893.77 95.9876 1898.6 88.9969 1904.45 83.2394C1906.63 81.0857 1909.44 79.2954 1912.29 78.1451C1917.15 76.1846 1922.18 74.4164 1927.29 73.3693C1935.85 71.6191 1944.52 70.8608 1953.1 73.6341C1957.81 75.1556 1962.49 77.5354 1967.29 77.8498C1978.3 78.5713 1987.66 73.198 1996.22 67.1329C2008.85 58.1856 2022.33 52.2594 2038 52.0434ZM1375 796.543C1376.55 792.656 1378.07 788.75 1379.67 784.885C1382.28 778.618 1384.35 772.481 1380.41 765.821C1378.48 762.543 1377.38 758.759 1376.01 755.16C1372.47 745.794 1369.91 735.915 1365.25 727.146C1359.22 715.795 1352.19 705.056 1348.77 692.434C1347.01 685.908 1343.45 679.786 1342.3 673.203C1341.56 668.975 1339.78 666.558 1336.51 665.196C1331.11 662.947 1325.54 660.987 1319.88 659.526C1312.48 657.618 1313.2 656.267 1309.28 664.32C1306.25 670.553 1304.47 671.47 1297.65 669.179C1294.73 668.198 1291.84 667.131 1288.95 666.036C1276.72 661.386 1264.09 657.534 1252.35 651.839C1236.95 644.364 1236.06 636.544 1237.26 622.499C1237.53 619.312 1236.63 617.219 1235.35 615C1233.47 611.738 1231.09 608.77 1229.01 605.614C1222.94 596.392 1217.02 587.049 1205.03 584.549C1202.29 583.978 1199.46 583.493 1196.96 582.338C1195.06 581.463 1192.24 579.478 1192.34 578.177C1192.47 576.373 1194.91 574.696 1196.47 573.073C1196.97 572.552 1197.84 572.398 1198.52 572.039C1200.02 571.251 1201.51 570.44 1203 569.638C1201.54 568.44 1200.24 566.955 1198.6 566.095C1192.6 562.932 1186.34 560.223 1180.43 556.889C1170.82 551.462 1161.69 545.106 1151.83 540.193C1140.47 534.531 1127.86 533.568 1115.31 533.03C1109.28 532.772 1103.25 532.223 1097.22 532.083C1090 531.915 1082.66 531.226 1075.58 532.23C1064.3 533.829 1054.58 539.676 1045.43 546.187C1033.89 554.395 1023.19 563.498 1013.3 573.794C1005.51 581.899 995.836 588.256 986.701 594.987C975.495 603.243 964.007 611.161 954.881 621.805C951.694 625.522 948.136 629.931 951.125 635.264C952.975 638.567 955.666 641.67 958.648 644.011C964.787 648.831 965.624 651.888 961.361 658.182C957.907 663.282 958.487 666.75 963.825 669.995C968.582 672.887 973.777 675.085 978.407 678.15C980.702 679.669 983.235 682.211 983.789 684.706C985.178 690.965 980.345 694.046 974.653 694.983C969.296 695.865 964.152 694.567 959.456 691.939C955.848 689.921 951.612 688.407 949.358 692.444C942.96 703.906 933.755 713.853 930.912 727.294C928.693 737.785 925.893 748.168 922.985 758.496C918.832 773.249 914.124 787.849 910.152 802.648C909.137 806.433 909.867 810.73 910.132 814.769C910.176 815.441 911.986 816.542 912.927 816.49C914.568 816.399 916.347 815.852 917.743 814.978C919.969 813.583 923.218 812.116 923.778 810.063C926.288 800.865 928.431 791.515 929.874 782.092C931.213 773.351 934.038 769.264 942.799 766.786C945.21 766.104 947.714 765.591 950.207 765.381C957.737 764.748 965.166 764.535 972.123 768.58C978.535 772.307 984.892 776.576 991.85 778.82C1003.68 782.633 1015.97 784.979 1028.04 788.07C1034.25 789.662 1040.34 791.408 1044.08 797.52C1047.05 802.357 1050.68 806.781 1053.9 811.47C1058.79 818.594 1064.38 825.386 1068.24 833.04C1075.48 847.398 1086.43 858.024 1099.29 867.01C1107.55 872.781 1113.21 879.622 1112.09 890.558C1111.51 896.169 1108.88 899.142 1103.46 897.965C1096.18 896.382 1088.82 894.795 1081.85 892.225C1070.3 887.966 1059.08 882.84 1047.65 878.248C1042.79 876.294 1037.87 874.23 1032.77 873.216C1028.82 872.429 1027.36 875.148 1029.18 878.712C1034.21 888.601 1042.49 895.763 1050 903.604C1058.13 912.103 1064.18 921.87 1068.12 933.085C1070.58 940.092 1072.02 947.03 1072.12 954.466C1072.21 961.031 1073.75 967.573 1073.89 974.14C1074.04 981.382 1072.84 988.661 1073.13 995.889C1073.47 1004.44 1077.62 1011.03 1085.48 1015.08C1089.13 1016.97 1090.9 1016.67 1092.54 1012.3C1093.99 1008.44 1096.8 1004.75 1099.87 1001.92C1103.77 998.323 1108.5 995.599 1112.96 992.629C1115.15 991.171 1117.51 989.957 1119.84 988.726C1122.12 987.524 1123.55 987.626 1125.12 990.409C1129.52 998.2 1128.09 1005.29 1124.08 1012.62C1122.8 1014.97 1122.2 1017.99 1122.27 1020.68C1122.38 1024.61 1123.18 1028.55 1124.04 1032.41C1125.53 1039.09 1126.04 1046.12 1131.6 1051.33C1133.29 1052.91 1134.02 1055.6 1134.97 1057.87C1136.45 1061.42 1137.59 1065.13 1139.22 1068.6C1139.6 1069.41 1141.42 1069.96 1142.51 1069.86C1143.09 1069.8 1143.74 1068.14 1143.96 1067.12C1144.73 1063.59 1145.03 1059.92 1146.15 1056.51C1146.62 1055.08 1148.64 1053.37 1150.06 1053.26C1151.64 1053.14 1154.57 1054.46 1154.81 1055.6C1157.13 1066.36 1160.06 1077.17 1160.7 1088.08C1161.36 1099.11 1161.84 1109.63 1168.95 1118.79C1172.6 1123.5 1175.74 1128.61 1179.03 1133.6C1180.46 1135.78 1182.71 1138.07 1182.79 1140.37C1182.95 1145.12 1185.58 1146.28 1189.36 1147.09C1193.15 1147.9 1197.23 1148.44 1200.49 1150.31C1204.35 1152.51 1208.17 1153.55 1212.37 1152.96C1214.94 1152.61 1217.39 1151.45 1219.89 1150.65C1218.79 1148.47 1218.07 1145.95 1216.5 1144.18C1210.46 1137.33 1209.2 1125.6 1213.88 1119.61C1219.43 1112.5 1232.56 1111.96 1240.2 1118.66C1247.25 1124.84 1245.4 1134.94 1250.78 1141.89C1251.33 1142.6 1250.09 1147.22 1246.03 1145.64C1244.73 1145.14 1243.18 1144.98 1241.79 1145.13C1240.82 1145.23 1239.93 1146.11 1239 1146.64C1239.49 1147.44 1239.81 1148.46 1240.51 1148.99C1247.62 1154.4 1252.88 1161.31 1257.46 1168.89C1259.52 1172.29 1262.1 1175.45 1264.86 1178.31C1272.15 1185.86 1274.42 1195.32 1276.12 1205.2C1276.73 1208.77 1277.97 1212.75 1280.29 1215.32C1281.63 1216.81 1286.53 1217.09 1288.31 1215.8C1292.07 1213.1 1294.73 1208.92 1298.05 1205.54C1299.44 1204.12 1301.72 1201.97 1302.92 1202.34C1304.61 1202.86 1306.35 1205.23 1306.88 1207.14C1308.85 1214.2 1310.71 1221.34 1311.82 1228.56C1312.29 1231.66 1311.48 1235.37 1310.07 1238.22C1308.32 1241.8 1305.62 1238.43 1303.27 1238.16C1301.68 1237.97 1298.69 1238.58 1298.53 1239.31C1298.1 1241.29 1298.29 1243.86 1299.3 1245.56C1300.08 1246.88 1302.41 1247.73 1304.15 1247.94C1307.27 1248.31 1310.48 1248.18 1313.64 1248.01C1319.14 1247.73 1324.19 1246.03 1327.25 1241.19C1330.91 1235.38 1336.33 1231.9 1342.23 1229.14C1345.62 1227.55 1346.75 1225.06 1346.98 1221.81C1347.7 1211.76 1348.86 1201.7 1348.87 1191.64C1348.9 1178.02 1350.49 1164.63 1353.01 1151.31C1355.12 1140.2 1358.08 1129.19 1359.31 1117.99C1360.4 1108.16 1361.18 1097.81 1359.26 1088.26C1356.54 1074.71 1351.43 1061.61 1346.94 1048.45C1342.91 1036.64 1338.73 1024.85 1333.89 1013.36C1328.7 1001.01 1323.3 988.652 1316.75 976.997C1313.03 970.367 1307.29 964.614 1301.61 959.406C1294.8 953.18 1286.78 948.301 1279.83 942.226C1268.1 931.981 1255.17 923.621 1241.65 916.017C1230.42 909.696 1219.08 903.521 1208.21 896.613C1191.21 885.804 1175.77 872.534 1157.01 864.468C1151.35 862.033 1146.13 858.555 1140.47 856.11C1129.31 851.288 1117.8 847.239 1106.76 842.155C1094.46 836.491 1093.65 825.18 1104.49 817.058C1111.1 812.103 1117.9 807.382 1124.28 802.138C1129.24 798.05 1133.54 793.073 1131.91 785.907C1130.82 781.115 1128.93 776.494 1127.27 771.844C1125.33 766.403 1120.32 765.337 1115.69 765.201C1107.68 764.966 1099.64 765.764 1091.61 766.025C1086.06 766.205 1081.42 764.087 1077.56 760.12C1074.66 757.134 1071.9 753.941 1068.66 751.367C1066.28 749.482 1063.37 747.909 1060.45 747.154C1053.93 745.466 1047.27 744.284 1040.63 743.084C1037.48 742.514 1034.15 741.705 1031.08 742.172C1022.54 743.468 1014.13 745.485 1005.62 747.009C998.982 748.199 992.123 744.362 991.128 738.346C990.068 731.94 991.205 725.546 994.688 719.902C1001.25 709.276 1011.26 702.584 1022.06 697.116C1033.88 691.13 1046.05 685.827 1057.96 679.996C1064.21 676.933 1070.35 673.59 1076.3 669.983C1082.21 666.403 1082.94 660.768 1078.43 656.969C1076.32 655.202 1074 653.636 1072.18 651.611C1070.24 649.441 1067.45 646.854 1067.42 644.42C1067.37 640.356 1071.43 638.073 1074.92 637.171C1087.76 633.85 1100.67 630.707 1113.68 628.154C1123.35 626.257 1133.26 625.632 1142.99 623.984C1157.55 621.516 1172.12 619.614 1186.83 622.09C1199.04 624.145 1210.26 629.083 1220.77 635.449C1226.29 638.795 1226.76 643.653 1221.66 647.659C1214.12 653.571 1205.84 658.518 1198.04 664.103C1195.43 665.966 1193.33 668.529 1191 670.771C1193.82 672.862 1196.39 675.474 1199.5 676.945C1208.54 681.223 1218.31 684.188 1226.85 689.25C1238.76 696.301 1251.19 699.452 1264.83 699.087C1273.55 698.854 1282.3 699.407 1291 698.959C1304.48 698.264 1316.33 702.987 1327.84 709.071C1333.36 711.988 1337.55 719.077 1336.4 723.13C1333.97 731.72 1329.17 738.423 1320.75 742.028C1309.71 746.756 1298.59 751.279 1287.61 756.14C1285.78 756.948 1284.52 759.034 1283 760.53C1284.85 762.034 1286.47 764.25 1288.58 764.915C1295.98 767.246 1303.57 768.941 1311.04 771.064C1326.94 775.583 1343.02 779.625 1357.51 788.026C1362.44 790.883 1364.76 795.426 1362.12 798.277C1359.74 800.846 1357.05 803.797 1353.91 804.862C1343.65 808.345 1333.25 811.65 1322.67 813.893C1308.76 816.839 1294.7 819.365 1280.58 820.845C1268.32 822.131 1255.88 821.658 1243.52 822.076C1239.98 822.196 1236.35 822.294 1232.97 823.192C1230.79 823.773 1228.98 825.787 1227 827.159C1228.3 828.923 1229.27 831.191 1230.99 832.325C1233.12 833.724 1235.82 834.35 1238.35 835.008C1243.63 836.382 1249.08 837.189 1254.23 838.928C1258.6 840.404 1259.09 842.967 1255.71 845.674C1252.96 847.877 1249.53 849.225 1246.49 851.078C1245.53 851.66 1244.2 852.632 1244.17 853.461C1244.15 854.299 1245.4 855.357 1246.32 856.006C1248.09 857.263 1249.97 858.405 1251.9 859.413C1260.66 863.991 1269.29 868.878 1278.29 872.954C1290.9 878.67 1304.18 883.024 1316.48 889.324C1329.96 896.233 1336.97 904.069 1328.89 918.174C1326.67 922.052 1327.01 924.556 1330.44 926.979C1331.47 927.704 1332.5 928.433 1333.56 929.097C1345.26 936.39 1355.91 944.839 1364.46 955.838C1367.02 959.133 1370.52 961.812 1373.96 964.245C1374.99 964.973 1378.56 964.299 1378.78 963.6C1379.65 960.734 1379.71 957.615 1379.99 954.582C1380.36 950.558 1380.74 946.531 1380.98 942.497C1381.38 935.973 1382.32 929.396 1381.86 922.924C1381.03 911.275 1378.4 899.699 1378.25 888.07C1378.09 875.756 1376.47 864.809 1365.66 857.18C1365.12 856.802 1364.66 856.288 1364.24 855.772C1360.18 850.729 1359.01 845.603 1362.96 839.747C1370.64 828.338 1373.26 815.503 1373.07 801.921C1373.05 800.302 1374 798.669 1375 796.543ZM466 787.543C467.638 789.181 469.088 791.081 470.945 792.415C483.25 801.257 492.877 812.194 500.162 825.649C508.231 840.55 496.947 852.445 486.619 856.991C476.291 861.537 466.56 857.815 457.208 853.647C443.835 847.686 430.695 841.204 417.42 835.021C416.204 834.454 414.731 834.438 413.378 834.165C413.479 835.519 413.415 836.91 413.712 838.219C414.805 843.037 417.412 846.688 421.72 849.35C427.7 853.045 432.038 858.082 434.513 864.93C437.935 874.397 436.391 878.385 427.235 882.371C418.719 886.077 411.861 891.324 409.931 901.339C407.891 911.929 403.322 921.854 402.825 932.944C402.236 946.092 399.594 959.157 399.177 972.3C398.588 990.911 398.097 1009.59 401.902 1028.07C403.223 1034.48 402.501 1041.4 404.327 1047.61C407.617 1058.81 408.905 1070.12 408.975 1081.65C409.074 1097.98 408.909 1114.32 409.068 1130.65C409.105 1134.45 409.297 1138.5 410.608 1141.99C416.461 1157.55 422.966 1172.87 428.756 1188.46C430.858 1194.12 431.765 1200.25 432.953 1206.22C433.82 1210.57 434.146 1215.04 434.906 1219.42C436.37 1227.87 439.321 1235.74 442.748 1243.67C447.692 1255.11 454.348 1264.52 464.775 1271.41C471.775 1276.04 479.094 1280.26 484.203 1287.42C485.658 1289.46 489.321 1290.66 492.083 1290.89C498.208 1291.39 504.431 1291.39 510.558 1290.9C513.678 1290.65 516.99 1289.38 519.651 1287.69C522.887 1285.63 525.283 1282.27 528.473 1280.11C538.588 1273.26 548.908 1266.72 559.14 1260.04C565.629 1255.81 570.414 1250.5 571.091 1242.26C571.26 1240.2 572.201 1237.99 573.383 1236.25C584.368 1220.11 595.56 1204.11 606.512 1187.95C609.643 1183.33 613.544 1178.61 614.69 1173.41C616.517 1165.11 616.875 1156.37 616.889 1147.81C616.917 1129.28 616.369 1110.75 615.962 1092.22C615.899 1089.36 615.799 1086.34 614.869 1083.68C613.943 1081.04 612.465 1078.47 608.462 1080.9C604.816 1083.11 600.719 1084.91 596.584 1085.92C590.362 1087.43 585.714 1083.97 581.017 1080.15C574.026 1074.46 567.241 1068.9 563.571 1060.24C561.165 1054.57 558.364 1048.92 554.808 1043.93C552.897 1041.25 549.109 1038.5 546.012 1038.31C535.054 1037.63 524.028 1037.97 513.032 1038.17C512.005 1038.19 509.979 1040.31 510.166 1040.83C511.466 1044.44 512.412 1048.78 515.029 1051.18C519.275 1055.1 520.425 1059.67 521.003 1064.84C521.227 1066.83 522.27 1069.16 521.581 1070.74C519.79 1074.86 517.339 1078.6 521.859 1082.54C522.364 1082.98 521.899 1084.45 522.013 1085.43C522.548 1090.04 522.983 1094.66 523.729 1099.23C524.609 1104.62 519.755 1110.75 514.217 1111.08C512.664 1111.17 511.139 1111.86 509.59 1111.91C504.94 1112.05 499.749 1113.32 495.776 1111.69C491.58 1109.97 487.394 1106.03 485.231 1101.99C480.164 1092.5 476.374 1082.35 471.933 1072.52C470.23 1068.76 470.833 1065.65 473.133 1062.27C475.525 1058.76 476.893 1054.55 474.904 1050.44C473.346 1047.22 471.215 1044.15 468.803 1041.5C466.361 1038.82 466.115 1036.57 469.056 1034.62C470.935 1033.37 473.359 1032.08 475.463 1032.19C481.548 1032.53 487.365 1035.05 493.778 1033.22C497.219 1032.23 501.209 1033.37 504.893 1032.98C516.024 1031.82 527.107 1030.14 538.253 1029.18C541.904 1028.86 544.702 1028 547.247 1025.38C551.07 1021.44 555.725 1020.02 561.159 1021.69C568.083 1023.81 574.65 1027.46 582.364 1026.09C587.543 1025.17 592.801 1024.21 598.027 1024.19C602.706 1024.17 604.686 1021.8 603.837 1018.09C602.292 1011.34 599.706 1004.83 597.658 998.182C595.378 990.786 592.336 983.486 591.203 975.908C589.437 964.104 588.982 952.102 588.009 940.181C587.621 935.433 587.308 930.679 587.005 925.924C586.322 915.202 585.533 904.484 585.037 893.752C584.538 882.933 582.579 872.575 577.408 862.895C571.648 852.112 566.681 840.981 568.117 828.31C568.434 825.516 569.509 822.007 571.501 820.364C576.243 816.456 577.612 811.355 577.907 805.935C578.543 794.256 578.737 782.551 578.974 770.854C579.117 763.8 579.152 756.737 578.968 749.685C578.603 735.726 579.808 721.96 582.96 708.332C585.676 696.589 587.943 684.742 590.6 672.984C592.627 664.012 594.009 655.057 592 645.9C590.973 641.221 588.747 639.92 584.077 641.493C578.817 643.265 573.636 645.268 568.371 647.025C560.166 649.762 551.309 651.245 543.824 655.289C529.985 662.766 516.46 670.129 500.003 666.985C494.984 666.026 489.704 665.152 485.23 662.884C475.44 657.922 474.625 642.778 482.558 636.167C491.094 629.053 500.393 622.865 509.146 615.999C516.838 609.965 524.855 604.094 529.965 595.504C538.892 580.494 551.894 572.18 569.181 569.93C574.837 569.193 580.445 567.481 585.851 565.578C593.831 562.77 599.494 556.904 604.411 550.193C606.959 546.714 606.507 544.278 602.316 543.103C598.251 541.964 594.068 541.209 589.903 540.472C581.191 538.931 572.507 536.861 563.722 536.192C549.566 535.114 535.883 538.921 522.332 542.362C510.949 545.253 501.107 550.866 497.447 563.167C494.662 572.527 487.363 576.62 479.239 580.057C471.155 583.476 462.497 586.036 455.199 590.704C443.197 598.381 432.381 607.894 420.508 615.797C411.461 621.819 400.861 624.309 389.968 623.865C386.252 623.713 381.125 623.525 380.108 618.347C379.135 613.391 382.297 610.329 386.379 608.013C389.637 606.164 392.798 604.129 395.898 602.024C400.976 598.575 407.336 595.982 410.711 591.275C417.364 581.995 422.86 571.766 427.868 561.459C432.894 551.116 435.508 539.646 445.903 532.445C454.444 526.529 462.285 519.603 470.417 513.102C471.024 512.617 471.476 511.94 472 511.352C471.339 510.916 470.727 510.263 470.004 510.097C469.054 509.879 467.957 509.827 467.025 510.078C460.288 511.895 453.314 513.174 446.908 515.816C432.247 521.864 418.031 528.999 403.322 534.918C391.031 539.864 378.151 543.339 365.808 548.17C357.136 551.564 347.559 553.931 343.777 564.607C339.808 575.812 338.213 586.014 346.556 596.379C354.246 605.934 360.406 616.584 364.868 628.237C369.38 640.016 374.801 651.456 380.036 662.948C384.191 672.067 389.095 680.867 392.851 690.139C395.402 696.438 398.431 701.588 405.09 704.07C417.857 708.829 430.361 714.378 444.458 714.117C450.752 714.001 456.367 720.603 454.786 725.721C452.778 732.221 448.204 736.345 442.096 739.066C434.074 742.64 426.162 746.464 418.128 750.009C413.704 751.96 413.157 755.734 414.161 759.406C415.113 762.883 417.866 765.211 422.044 765.075C426.373 764.933 430.761 764.627 435.029 765.156C439.647 765.729 444.35 766.684 448.671 768.361C457.276 771.702 461.573 779.289 466 787.543ZM1440 1117.54C1440.33 1119.24 1440.85 1120.91 1440.97 1122.62C1442.02 1136.87 1442.86 1151.13 1444.07 1165.37C1444.55 1171.03 1446.13 1176.6 1446.62 1182.26C1447.12 1188.07 1447.19 1193.96 1446.91 1199.79C1446.68 1204.7 1445.53 1209.56 1445.05 1214.47C1444.72 1217.79 1446.73 1219.44 1449.88 1218.99C1454.7 1218.29 1459.43 1216.94 1464.26 1216.36C1470.22 1215.66 1476.28 1214.86 1482.21 1215.33C1484.6 1215.52 1488.08 1218.58 1488.74 1220.98C1490.5 1227.35 1490.96 1234.09 1492.01 1240.66C1493.05 1247.11 1494.85 1253.36 1501.64 1255.93C1505.83 1257.53 1510.39 1258.31 1514.86 1258.99C1527.73 1260.96 1538.42 1265.99 1545.09 1278.01C1548.79 1284.67 1554.4 1290.62 1562.26 1290.83C1585.4 1291.44 1608.58 1291.1 1631.74 1290.94C1633.77 1290.93 1637.51 1289.54 1637.52 1288.75C1637.59 1283.16 1637.92 1277.22 1636.17 1272.08C1634.15 1266.16 1629.82 1261.08 1626.96 1255.4C1623.98 1249.48 1626.11 1242.91 1630.94 1238.37C1632.95 1236.48 1634.9 1233.19 1634.78 1230.64C1634.38 1222.52 1633.33 1214.4 1631.88 1206.39C1630.93 1201.1 1629.07 1195.93 1627.23 1190.84C1624.37 1182.92 1622.43 1175 1624.99 1166.6C1627.48 1158.46 1630.11 1150.36 1632.3 1142.14C1633.27 1138.47 1633.66 1134.56 1633.73 1130.75C1633.9 1121.69 1635.99 1112.39 1628.3 1104.63C1622.57 1098.84 1620.24 1091.7 1622.85 1083.17C1624.36 1078.21 1624.74 1072.79 1624.92 1067.55C1625.36 1054.87 1620.96 1042.99 1618.25 1030.84C1617.07 1025.55 1615.1 1020.42 1614.08 1015.1C1612.75 1008.08 1611.55 1000.97 1611.1 993.851C1610.39 982.514 1609.34 971.054 1610.26 959.796C1611.32 946.926 1611.9 934.176 1608.11 921.87C1604 908.486 1598.75 895.438 1593.72 882.35C1591.25 875.917 1590.96 869.714 1595.96 864.757C1604.99 855.789 1607.16 844.729 1606.96 832.785C1606.85 826.419 1606.02 820.059 1606.07 813.7C1606.15 802.947 1606.53 792.19 1607.07 781.449C1607.28 777.183 1608.17 772.944 1608.85 768.709C1609.85 762.472 1611.34 756.283 1611.89 750.009C1612.41 743.998 1612.44 737.866 1611.91 731.858C1610.8 719.48 1616.03 708.782 1619.9 697.63C1621.83 692.058 1623.12 686.153 1623.74 680.297C1623.95 678.378 1621.37 675.905 1619.57 674.216C1619.15 673.82 1616.04 675.2 1615.33 676.433C1613.81 679.067 1612.32 682.093 1612.14 685.041C1611.58 694.072 1605.13 697.752 1598.33 700.986C1586.93 706.413 1575.5 711.853 1563.78 716.525C1558.48 718.64 1552.44 719.84 1546.74 719.812C1539.65 719.777 1532.56 718.091 1525.48 717.025C1521.43 716.415 1517.21 716.163 1513.4 714.811C1500.9 710.374 1500.3 699.311 1508.27 692.086C1514.6 686.347 1520.63 680.116 1525.91 673.41C1532.41 665.165 1540.3 659.274 1549.63 654.666C1554.2 652.409 1558.97 649.118 1561.74 645.009C1565.69 639.167 1570.79 634.934 1576.68 632.225C1590.94 625.665 1605.57 619.909 1620.16 614.099C1627.7 611.095 1629.85 601.858 1624.23 595.737C1615.63 586.366 1605.02 587.455 1594.79 591.003C1582.46 595.284 1570.73 601.289 1558.49 605.92C1551.41 608.6 1543.94 610.408 1536.5 611.888C1532.84 612.615 1531.07 609.829 1532.37 606.258C1533.84 602.23 1531.66 601.055 1528.52 601.107C1519.15 601.262 1509.77 601.448 1500.44 602.157C1495.97 602.496 1491.47 603.677 1487.2 605.12C1478.3 608.126 1469.5 611.462 1460.74 614.862C1456.87 616.364 1452.8 617.844 1449.57 620.312C1447.66 621.77 1447.22 625.143 1446.11 627.655C1448.28 627.784 1450.55 628.378 1452.6 627.951C1457.61 626.909 1462.51 625.357 1467.48 624.079C1474.24 622.338 1480.42 624.972 1483.13 630.673C1485.23 635.105 1482.72 642.075 1477.1 645.299C1471.36 648.591 1465.32 651.425 1459.21 653.969C1453.01 656.549 1447.83 659.031 1445.49 666.607C1443.45 673.222 1438.98 679.254 1431.21 681.527C1429.2 682.117 1427.16 684.256 1426.11 686.208C1423.13 691.728 1419.2 694.642 1412.58 694.149C1406.14 693.669 1405.77 694.65 1408.98 700.512C1409.51 701.469 1410.04 702.462 1410.76 703.268C1415.85 708.978 1417.34 715.905 1416.85 723.18C1416.66 726.049 1414.28 728.918 1416.34 731.787C1418.21 734.387 1420.19 737.193 1422.78 738.944C1432.15 745.292 1434.3 754.539 1433.97 764.9C1433.84 768.935 1433.22 772.952 1433.03 776.987C1432.78 782.088 1434.99 785.978 1439.68 787.994C1445.15 790.339 1450.1 793.18 1454.26 797.606C1456.44 799.925 1459.6 801.418 1462.48 802.967C1467.79 805.814 1473.51 807.977 1478.5 811.275C1482.73 814.068 1484.21 822.333 1479.03 825.483C1475.85 827.419 1472.77 829.881 1469.29 830.875C1464.6 832.218 1459.58 832.612 1454.67 832.987C1447.57 833.529 1444.34 836.231 1446.11 841.384C1447.97 846.818 1446.56 851.597 1444.98 856.661C1443.35 861.853 1441.53 867.173 1441.16 872.531C1440.45 882.961 1443.99 892.694 1448.49 901.91C1452.69 910.525 1459.22 918.363 1456.92 928.868C1456.2 932.132 1455.08 935.654 1453.07 938.198C1450.62 941.288 1447.11 943.591 1443.9 946.017C1437.86 950.578 1434.78 956.543 1435.02 964.098C1435.25 971.296 1436.69 978.617 1435.8 985.657C1433.58 1003.12 1430.97 1020.49 1431.91 1038.2C1432.15 1042.69 1430.71 1047.31 1431.11 1051.77C1432.48 1066.94 1434.15 1082.08 1436.08 1097.19C1436.92 1103.7 1438.67 1110.1 1440 1117.54ZM1859.5 933.043C1860 929.751 1860.82 926.47 1860.93 923.165C1861.09 918.143 1861.16 913.544 1864.84 909.192C1868.7 904.627 1867.62 902.429 1862.96 898.378C1860.28 896.055 1858.22 893.035 1855.82 890.384C1853.58 887.9 1851.6 884.977 1848.89 883.14C1841.1 877.847 1832.16 876.23 1822.87 876.006C1817.83 875.884 1812.76 875.706 1807.8 874.959C1801.79 874.055 1795.91 872.907 1790.9 868.631C1785.01 863.604 1778.35 859.491 1772.23 854.711C1762.65 847.224 1753.51 838.98 1740.3 838.836C1739.16 838.824 1737.87 838.334 1736.91 838.716C1726.69 842.786 1715.82 842.499 1705.21 842.828C1694.85 843.15 1684.37 842.219 1674.07 840.901C1663.6 839.563 1655.08 851.227 1660.79 861.668C1663.08 865.876 1663.65 871.36 1663.84 876.31C1664.12 883.312 1662.52 890.438 1663.21 897.364C1664.04 905.794 1666.52 914.106 1674.51 918.999C1680.32 922.558 1686.75 925.203 1692.23 929.186C1697.74 933.193 1702.4 938.371 1707.47 942.997C1710.09 945.39 1712.5 948.703 1715.59 949.594C1717.01 950.005 1720.17 945.837 1721.93 943.318C1726.17 937.256 1728.88 929.672 1737.79 928.776C1739.25 928.629 1741.28 928.173 1742.05 928.906C1742.81 929.643 1742.45 931.695 1742.36 933.156C1742.15 936.473 1740.38 940.574 1744.19 942.416C1746.58 943.569 1750.21 943.36 1752.87 942.485C1759.35 940.345 1766.26 943.309 1768.21 949.757C1769.61 954.364 1772.57 957.467 1776.62 960.148C1783.67 964.813 1790.77 969.596 1793.19 978.652C1794.8 984.665 1794.23 988.105 1789.55 991.943C1785.62 995.167 1781.44 994.526 1777.02 992.635C1767.18 988.43 1758.83 982.06 1750.72 975.27C1745.91 971.246 1740.98 970.76 1737.14 974.549C1734.09 977.565 1731.39 981.052 1729.07 984.676C1726 989.49 1721.11 992.901 1718.38 990.716C1711.34 985.109 1703.4 979.913 1698.31 972.774C1690.18 961.355 1683.11 949.631 1669.43 943.703C1665.09 941.824 1661.96 942.861 1658.87 944.963C1657.79 945.702 1657.22 948.849 1657.88 950.186C1659.79 954.093 1662.76 957.481 1664.69 961.378C1666.53 965.079 1667.99 969.075 1668.92 973.103C1670.74 981.064 1672.27 989.106 1673.56 997.173C1674.64 1003.96 1675.26 1010.83 1675.96 1017.68C1676.16 1019.56 1675.55 1021.56 1675.93 1023.39C1676.74 1027.33 1678.2 1031.15 1678.95 1035.11C1680.27 1042.16 1681.05 1049.21 1684.92 1055.66C1688.55 1061.71 1691.02 1068.45 1694.28 1074.75C1696.49 1079.02 1699.87 1082.8 1701.51 1087.25C1705.47 1097.96 1709.45 1108.76 1712.06 1119.84C1715.13 1132.88 1717.34 1146.19 1718.82 1159.51C1720.04 1170.6 1719.67 1181.87 1720 1193.07C1720.02 1193.9 1719.65 1195.13 1720.06 1195.49C1721.56 1196.83 1723.97 1199.25 1724.88 1198.82C1731.2 1195.83 1738.89 1194.66 1742.03 1186.93C1744.53 1180.8 1747.32 1174.79 1750.01 1168.74C1751.7 1164.94 1752.86 1160.72 1755.28 1157.46C1761.78 1148.71 1768.64 1140.21 1775.72 1131.92C1782.67 1123.79 1786.76 1114.3 1789.99 1104.32C1792.88 1095.42 1796.79 1087.34 1805.06 1081.96C1808.36 1079.81 1811.37 1076.98 1813.93 1073.97C1818.75 1068.29 1819.56 1061.12 1819.96 1054.02C1820.47 1044.84 1820.68 1035.64 1820.99 1026.45C1821.1 1023.42 1820.82 1020.34 1821.26 1017.37C1821.92 1012.88 1823 1008.45 1824.02 1004.03C1825.28 998.565 1825.56 992.495 1828.24 987.821C1833.44 978.748 1838.39 969.519 1844.95 961.115C1851.24 953.053 1856.91 944.046 1859.5 933.043ZM1868.5 514.043C1870.14 516.043 1871.39 518.838 1873.5 519.893C1879.68 522.982 1886.31 525.161 1892.57 528.119C1896.77 530.104 1901.08 532.291 1904.53 535.314C1909.24 539.434 1907.81 544.06 1901.77 546.014C1900.14 546.542 1898.38 547.042 1896.7 546.993C1876.64 546.405 1856.59 545.738 1836.53 545.031C1827.04 544.697 1819.48 540.902 1813.89 532.925C1811.94 530.152 1808.95 527.773 1805.93 526.161C1800.51 523.268 1794.15 521.905 1789.19 518.454C1777.68 510.45 1765.77 503.81 1751.87 500.992C1738.23 498.228 1724.71 494.888 1711.08 492.098C1702.03 490.246 1692.86 488.896 1683.76 492.067C1682.75 492.419 1681.74 492.962 1680.93 493.657C1678.49 495.766 1677.5 497.997 1681.64 499.116C1686.01 500.298 1690.49 501.086 1694.93 502.043C1704.18 504.039 1713.52 506.468 1719.02 514.818C1723.58 521.727 1730.36 524.199 1737.43 525.875C1745.24 527.724 1751.68 531.115 1756.75 537.274C1759.88 541.087 1762.93 550.997 1759.01 556.19C1755.62 560.676 1750.66 562.084 1745.55 563.001C1738.99 564.176 1732.41 565.423 1725.79 565.949C1717.08 566.641 1708.64 565.978 1701.28 559.977C1695.01 554.861 1688.64 549.651 1680.27 548.01C1676.15 547.202 1672.13 545.729 1667.99 545.207C1666.46 545.015 1664.37 546.381 1663.16 547.634C1662.48 548.332 1662.62 550.479 1663.17 551.594C1665.08 555.484 1666.81 559.651 1669.56 562.906C1675.76 570.246 1678.28 578.39 1678.15 587.954C1678.04 595.881 1681.15 602.355 1688.33 607.254C1694.3 611.328 1698.59 617.283 1698.15 625.583C1697.95 629.261 1699.72 633.004 1699.9 636.75C1700.09 640.851 1702.97 640.626 1705.04 639.931C1717.32 635.825 1729.83 632.147 1741.6 626.835C1754.36 621.072 1766.96 614.894 1780.91 613.24C1791.97 611.928 1803.12 613.022 1813.97 616.418C1824.08 619.577 1834.06 621.564 1844.85 617.353C1850.96 614.969 1858.4 614.679 1865.04 615.384C1869.95 615.907 1874.9 619.013 1879.19 621.924C1888.15 628.007 1897.31 633.358 1908.05 635.623C1912.61 636.586 1916.23 636.257 1919.02 631.653C1924.17 623.178 1930.88 616.268 1940.08 611.872C1941.93 610.989 1943.08 608.034 1943.9 605.794C1944.75 603.458 1944.28 600.594 1945.29 598.371C1952.6 582.308 1954.32 565.333 1954 547.981C1953.97 546.315 1953.61 544.536 1954.06 543C1957.01 532.879 1956.14 523.039 1952.7 513.184C1949.09 502.826 1951.47 493.492 1957.75 484.666C1962.8 477.572 1969.55 471.491 1971.3 462.293C1973.34 451.559 1975.87 448.991 1964.68 442.049C1958.23 438.052 1952.02 433.991 1944.07 435.107C1939.44 435.758 1934.93 437.55 1930.29 437.88C1926.72 438.134 1925.46 439.731 1925.02 442.703C1924.59 445.551 1924.14 448.417 1924.04 451.286C1923.79 458.565 1913.92 463.907 1908.12 461.432C1898.49 457.322 1889.37 452.02 1879.89 447.503C1871.61 443.551 1863.1 440.444 1853.57 440.892C1850.2 441.05 1847.26 441.867 1846.34 444.632C1845.93 445.842 1848.99 448.234 1850.52 450.056C1853.57 453.694 1859.57 455.063 1859.03 461.46C1858.63 466.169 1861.23 468.629 1865.52 470.114C1869.73 471.568 1874.38 472.82 1877.71 475.535C1885.71 482.049 1893.41 488.808 1903.14 492.75C1906.13 493.964 1908.82 495.922 1911.77 497.257C1915.7 499.032 1916.94 502.422 1915.82 505.893C1914.7 509.396 1911.51 511.146 1907.46 511.086C1898.3 510.951 1889.12 510.81 1879.97 511.158C1876.29 511.297 1872.65 512.71 1868.5 514.043ZM659.5 982.043C662.667 991.23 665.868 1000.41 668.99 1009.61C672.305 1019.38 672.28 1019.53 681.859 1019C690.092 1018.54 698.295 1017.56 706.526 1017.08C719.905 1016.29 733.291 1015.52 746.685 1015.13C752.391 1014.97 754.536 1013.47 756.078 1007.58C757.206 1003.28 758.806 999.049 760.628 994.982C766.712 981.396 776.285 970.21 785.592 958.804C789.845 953.593 793.971 948.022 796.826 941.986C801.159 932.824 804.29 923.097 808.013 913.641C811.284 905.334 815.408 897.281 817.832 888.74C821.788 874.803 824.658 860.558 828.003 846.447C829.741 839.119 827.24 832.377 821.256 829.876C809.043 824.77 796.588 820.233 784.465 814.929C778.669 812.393 773.237 808.894 767.948 805.368C763.179 802.187 759.069 797.996 754.232 794.942C748.957 791.61 743.187 789.15 736.582 789.944C724.823 791.359 713.079 793.012 701.28 793.941C691.505 794.711 682.242 791.698 673.037 788.647C663.7 785.551 654.458 781.751 644.24 785.949C637.656 788.655 633.85 794.352 634.964 801.071C636.443 809.991 637.482 818.987 639.052 827.89C640.639 836.892 644.045 844.346 652.965 849.257C664.459 855.585 675.041 863.552 686.146 870.61C690.592 873.436 694.964 876.919 700.973 875.071C708.226 872.842 715.496 870.634 722.844 868.755C733.708 865.977 744.463 869.606 740.176 883.452C738.059 890.288 740.268 892.683 747.485 895.043C748.512 895.379 749.609 895.577 750.558 896.065C757.443 899.606 766.142 900.748 767.614 910.961C768.277 915.56 765.787 918.368 763.917 921.545C760.306 927.681 755.222 932.101 747.496 930.924C744.542 930.474 741.606 928.992 738.989 927.43C733.134 923.935 728.122 925.072 723.203 929.265C721.065 931.087 718.744 933.267 716.167 933.894C708.196 935.835 697.145 930.329 694.041 923.173C690.75 915.588 685.605 910.324 677.916 906.86C672.869 904.587 667.917 901.203 664.173 897.158C659.294 891.888 653.664 889.354 646.885 889.154C643.792 889.062 641.021 890.732 642.064 894.599C643.105 898.458 644.824 902.129 645.972 905.964C650.581 921.349 653.627 936.994 654.082 953.122C654.211 957.693 655.227 962.255 656.029 966.786C656.902 971.726 658 976.626 659.5 982.043ZM883 379.543C886.182 375.107 887.488 370.12 883.869 365.73C880.278 361.375 876.18 356.846 871.312 354.262C860.998 348.788 851.174 343.317 845.539 332.345C844.499 330.318 841.377 328.784 838.927 328.164C830.479 326.024 821.959 326.221 813.185 326.787C794.879 327.968 776.479 327.655 758.12 328.073C751.754 328.218 745.394 329.014 739.034 328.98C725.644 328.909 712.651 331.661 699.621 334.114C695.23 334.94 690.911 336.368 686.732 337.971C685.227 338.549 684.229 340.447 683 341.743C684.087 342.763 685.017 344.096 686.293 344.744C689.446 346.344 692.634 348.161 696.027 348.953C711.635 352.593 727.448 354.915 743.518 355.031C752.85 355.099 762.187 355.189 771.515 354.99C777.378 354.866 782.405 356.395 786.878 360.284C788.439 361.641 790.655 362.526 792.715 362.982C805.909 365.905 813.936 378.45 811 391.822C809.881 396.917 812.191 401.734 816.917 404.037C821.769 406.401 826.822 408.412 831.473 411.117C841.037 416.679 850.099 423.166 859.901 428.243C874.368 435.735 886.164 446.149 896.105 458.775C900.512 464.371 898.057 469.206 891.9 470.88C886.557 472.333 880.841 472.8 875.272 472.932C868.922 473.081 862.533 472.573 856.195 471.981C851.156 471.51 846.187 470.333 841.155 469.742C835.07 469.026 828.957 468.524 822.843 468.123C821.931 468.063 820.949 469.064 820 469.574C820.636 470.397 821.115 471.697 821.934 471.968C828.393 474.104 835.031 475.742 841.387 478.136C846.707 480.14 852.146 482.352 856.741 485.593C860.804 488.459 858.7 492.025 855.155 493.287C852.522 494.225 849.419 495.454 846.92 494.868C838.184 492.818 829.277 490.838 821.079 487.327C811.302 483.139 802.284 477.213 792.766 472.378C779.979 465.883 766.233 462.123 752.294 459.055C737.928 455.892 723.53 452.876 709.17 449.689C700.004 447.654 690.836 446.335 681.622 449.119C680.258 449.531 678.972 450.799 678.153 452.011C677.935 452.333 679.428 454.126 680.415 454.875C682.017 456.091 683.797 457.108 685.595 458.026C696.25 463.466 707.261 467.833 719.089 470.168C723.113 470.963 727.369 472.549 728.022 477.875C728.582 482.445 728.954 487.088 730.076 491.53C732.686 501.856 732.694 506.724 747.899 506.087C750.298 505.986 752.759 506.27 755.128 506.712C764.236 508.415 773.249 510.959 782.428 511.863C793.547 512.958 804.828 512.339 815.982 513.201C821.499 513.627 827.42 514.704 832.231 517.244C843.762 523.331 849.997 540.533 846.447 553.138C843.639 563.108 844.344 565.151 852.254 567.746C854.328 568.426 856.555 568.654 858.721 569.038C866.332 570.385 874.061 571.27 881.523 573.192C886.836 574.561 892.104 576.793 896.815 579.605C901.063 582.142 901.935 579.968 903.001 576.833C908.602 560.37 910.044 543.174 912.021 526.065C912.899 518.466 913.147 510.648 915.234 503.374C917.422 495.752 919.921 488.158 927.344 482.865C939.946 473.878 951.744 464.205 958.719 449.28C964.395 437.131 965.474 425.429 963.277 412.622C962.315 407.01 962.676 401.016 963.401 395.318C964.051 390.214 961.702 386.053 956.433 386.107C949.735 386.177 943.007 386.401 936.361 387.163C932.573 387.598 928.92 389.226 925.211 390.336C922.248 391.223 919.343 392.592 916.321 392.93C912.467 393.36 908.323 392.179 904.659 393.103C898.262 394.716 892.207 397.646 885.857 399.504C883.866 400.086 880.828 399.689 879.306 398.458C878.067 397.455 877.63 394.324 878.151 392.515C879.338 388.401 881.333 384.519 883 379.543ZM633 699.543C632.119 707.128 634.239 713.961 637.959 720.496C640.169 724.378 643.001 728.325 643.688 732.546C644.481 737.41 647.668 740.147 650.865 741.818C658.272 745.689 664.262 750.998 670.299 756.568C673.127 759.178 677.192 760.975 680.996 761.875C686.564 763.194 692.386 763.662 698.128 763.98C708.2 764.539 718.293 764.705 728.376 765.049C729.841 765.099 731.302 765.284 732.766 765.298C737.903 765.346 743.041 765.344 748.178 765.366C751.747 765.382 755.409 764.896 758.865 765.532C766.302 766.903 771.626 771.95 777.31 776.597C782.336 780.705 787.953 784.827 794.006 786.785C805.978 790.659 818.426 793.071 830.691 796.032C836.836 797.515 843.064 793.867 841.701 789.418C840.587 785.783 838.388 782.459 836.51 779.087C834.09 774.744 831.237 770.622 829.083 766.158C827.207 762.271 828.949 759.292 832.85 757.731C835.425 756.701 838.472 756.453 840.647 754.918C843.749 752.729 847.88 750.078 848.645 746.916C850.044 741.131 853.435 737.948 857.717 734.624C860.859 732.183 864.832 729.02 865.515 725.597C866.751 719.4 866.557 712.644 865.519 706.359C864.788 701.932 865.09 698.159 867.109 694.522C870.105 689.128 869.866 686.354 865.147 682.745C863.299 681.332 861.254 680.132 859.181 679.066C847.772 673.199 835.105 671.859 822.849 669.013C813.058 666.74 804.059 663.565 798.778 653.595C795.497 647.401 789.999 643.177 782.765 640.859C773.463 637.878 764.373 637.313 754.857 638.982C745.627 640.6 736.277 641.523 727.037 643.09C715.157 645.104 703.541 644.895 691.816 641.597C687.093 640.268 681.739 640.455 676.76 640.909C666.695 641.825 658.411 647.346 651.17 653.684C643.289 660.582 634.459 667.461 633.431 679.199C632.869 685.611 633.117 692.093 633 699.543ZM1062.5 1081.04C1070.04 1083.57 1078.7 1081.14 1081 1073.17C1081.78 1070.49 1082.33 1067.71 1083.45 1065.18C1085.28 1061.02 1084.47 1059.58 1079.82 1059.02C1069.37 1057.76 1058.83 1056.89 1048.52 1054.88C1040.03 1053.23 1032.46 1049.22 1030.24 1039.71C1028 1030.14 1022.39 1023.26 1014.02 1018.64C1004.82 1013.57 995.382 1008.94 986.094 1004.03C978.478 1000 974.279 993.938 973.871 984.993C973.591 978.86 972.202 972.762 971.11 966.684C969.499 957.712 967.871 948.737 965.948 939.828C964.486 933.055 962.927 926.453 957.098 921.443C949.094 914.565 942.135 906.445 933.969 899.789C927.091 894.184 919.229 889.745 911.603 885.118C908.212 883.061 903.977 882.463 902.1 886.983C896.899 899.509 888.977 910.683 885.216 924.008C882.31 934.302 877.279 944.016 872.972 953.891C866.077 969.698 859.225 985.531 851.906 1001.14C848.167 1009.12 843.353 1016.59 839.208 1024.38C835.634 1031.1 838.143 1036.82 845.737 1038.99C851.453 1040.62 856.155 1043.62 860.968 1047.07C864.514 1049.62 869.717 1050.62 874.249 1050.83C879.596 1051.07 885 1049.38 890.408 1049.11C903.807 1048.44 913.28 1055.24 921.122 1065.42C923.03 1067.9 926.945 1071.22 929.108 1070.7C939.93 1068.1 946.983 1072.25 952.848 1080.45C955.868 1084.67 955.889 1089.97 952.834 1092.61C949.326 1095.64 945.742 1094.18 942.271 1092.06C939.359 1090.29 936.452 1088.43 933.327 1087.12C929.866 1085.67 925.739 1089.71 925.916 1093.41C926.22 1099.78 927.015 1106.38 925.773 1112.52C923.661 1122.96 916.763 1130.39 905.185 1131.31C901.203 1131.62 896.335 1134.08 893.909 1137.17C891.179 1140.64 888.571 1141.16 884.9 1141.08C880.31 1140.97 877.787 1143.12 878.113 1147.68C878.482 1152.86 879.701 1157.98 880.579 1163.12C881.263 1167.12 884.587 1170.73 882.026 1175.21C877.468 1183.19 878.068 1191.6 879.953 1200.21C882.03 1209.69 884.493 1218.69 892.005 1225.79C897.103 1230.61 901.228 1236.51 905.492 1242.14C907.726 1245.1 909.03 1248.77 911.354 1251.63C912.263 1252.75 914.846 1252.88 916.604 1252.73C917.171 1252.68 917.713 1250.34 917.963 1248.99C918.426 1246.49 918.497 1243.9 919.036 1241.42C920.121 1236.41 920.196 1231.29 922.8 1226.47C924.803 1222.76 925.351 1218.12 925.874 1213.81C926.211 1211.03 925.279 1208.1 925.039 1205.24C924.979 1204.53 925.397 1203.78 925.596 1203.04C926.155 1203.63 926.64 1204.33 927.291 1204.79C928.367 1205.56 929.549 1206.18 930.687 1206.86C930.792 1204.9 931.265 1202.86 930.838 1201.03C930.636 1200.16 928.672 1199.08 927.574 1199.15C923.041 1199.44 922.069 1196.76 922.012 1193.15C921.956 1189.59 922.252 1186.02 921.954 1182.49C920.952 1170.59 924.908 1159.36 926.949 1147.97C928.966 1136.71 938.854 1129.99 946.372 1122.07C949.534 1118.74 953.312 1115.3 954.775 1111.18C958.763 1099.97 961.395 1088.28 965.122 1076.96C966.823 1071.8 964.777 1069.28 961.067 1066.38C958.549 1064.41 956.922 1061.26 955.036 1058.55C954.35 1057.56 954.397 1055.85 953.552 1055.22C948.793 1051.68 948.37 1047.2 949.95 1041.96C950.585 1039.86 950.119 1037.29 951.123 1035.46C952.793 1032.43 954.815 1029.3 957.455 1027.15C963.662 1022.1 971.34 1023.08 978.704 1023.03C982.697 1023 985.454 1024.82 986.978 1028.39C990.036 1035.54 990.087 1042.86 988.041 1050.31C987.337 1052.87 986.623 1055.59 986.745 1058.19C987.103 1065.79 992.477 1068.58 998.832 1071.2C1008.35 1075.14 1019.11 1076.32 1027.06 1083.98C1033.11 1089.81 1039.69 1095.09 1046.06 1100.59C1046.94 1101.35 1047.94 1101.97 1048.88 1102.66C1049.16 1101.19 1050.15 1099.33 1049.59 1098.32C1046.29 1092.32 1042.96 1086.29 1039 1080.73C1036.32 1076.97 1036.17 1069.45 1039.49 1068.05C1045.31 1065.6 1052.75 1068.65 1055.99 1074.4C1057.37 1076.87 1059.64 1078.85 1062.5 1081.04ZM178 897.543C178.667 904.599 178.81 911.753 180.115 918.689C182.454 931.122 184.511 943.75 188.494 955.694C193.075 969.432 198.537 982.731 200.175 997.367C201.417 1008.47 201.082 1019.32 199.32 1030.25C198.408 1035.91 197.719 1041.6 197.02 1047.29C196.682 1050.04 197.542 1051.15 200.239 1049.32C204.261 1046.58 208.961 1044.48 212.154 1040.99C214.629 1038.29 218.604 1035.05 216.651 1030.25C212.888 1021.01 210.728 1011.74 211.77 1001.5C212.536 993.966 220.417 987.062 227.073 987.044C229.238 987.038 231.547 987.514 233.529 986.911C235.522 986.306 237.19 984.632 239 983.427C237.641 982.299 236.452 980.755 234.892 980.116C228.558 977.521 224.883 973.493 225.922 966.155C226.128 964.704 225.703 962.883 224.929 961.626C222.789 958.151 223.959 955.145 226.569 953.122C234.218 947.194 243.286 946.402 252.094 948.901C260.177 951.194 263.368 959.873 260.785 968.758C258.416 976.907 260.094 981.367 266.814 986.107C268.82 987.523 270.963 989.418 271.879 991.586C275.255 999.576 279.631 1006.92 285.102 1013.58C292.28 1022.31 291.07 1031.18 283.367 1039.35C275.915 1047.26 275.855 1051.38 282.021 1059.36C287.493 1066.45 293.652 1073.07 299.991 1079.41C310.809 1090.24 316.842 1103.8 323.104 1117.35C324.604 1120.59 327.337 1123.29 329.665 1126.11C330.166 1126.71 331.363 1126.75 332.24 1127.04C332.493 1126.2 332.817 1125.37 332.989 1124.51C334.311 1117.89 335.749 1111.29 336.864 1104.63C338.072 1097.43 339.697 1090.18 339.782 1082.93C339.857 1076.51 337.893 1070.09 337.145 1063.64C336.254 1055.95 335.726 1048.23 334.994 1040.52C333.681 1026.69 332.077 1012.88 331.1 999.022C330.547 991.175 331.032 983.256 330.99 975.369C330.954 968.634 328.063 962.963 324.161 957.713C319.235 951.085 313.919 944.712 309.424 937.805C304.838 930.758 299.966 924.388 292.547 919.924C283.281 914.349 274.262 908.302 265.521 901.931C255.97 894.969 246.965 887.262 237.527 880.139C227.927 872.895 218.282 865.678 208.293 858.992C200.561 853.816 192.439 849.144 184.157 844.897C179.483 842.5 178.1 843.852 177.978 848.894C177.895 852.312 177.431 855.726 177.432 859.141C177.436 871.491 177.564 883.84 177.661 896.19C177.662 896.309 177.882 896.426 178 897.543ZM1409 460.543C1409.33 459.347 1409.83 458.17 1409.97 456.951C1411.51 443.932 1419.16 435.963 1431.19 432.185C1435.31 430.893 1433.54 429.965 1431.86 428.409C1427.89 424.743 1424.03 420.936 1419.85 417.517C1417.6 415.674 1414.96 413.776 1412.21 413.174C1401.61 410.852 1390.98 408.35 1380.22 407.208C1364.71 405.563 1349.09 405.046 1333.51 404.038C1332.39 403.965 1331.23 403.972 1330.16 403.672C1320.8 401.036 1317.71 403.896 1318.89 413.258C1319.64 419.268 1320.05 425.552 1312.32 428.41C1309.9 429.306 1307.9 431.642 1306.01 433.615C1303.5 436.249 1304.16 438.45 1307.68 438.989C1313.37 439.859 1319.11 440.406 1324.84 441.035C1331.22 441.737 1337.72 441.898 1343.94 443.29C1346.28 443.813 1348 447.13 1350 449.174C1347.94 450.797 1346.06 452.778 1343.77 453.936C1341.74 454.96 1339.2 454.9 1336.97 455.607C1324.02 459.724 1310.89 462.643 1297.16 462.083C1291.34 461.845 1285.5 462.061 1279.67 462.039C1273.18 462.014 1267.33 463.666 1261.9 467.466C1258.93 469.544 1255.29 470.765 1251.81 471.997C1245.71 474.164 1239.46 475.949 1233.35 478.113C1231.89 478.629 1230.74 480.009 1229.45 480.991C1231.3 481.342 1233.18 482.098 1235 481.972C1242.07 481.481 1249.11 480.258 1256.17 480.204C1260.8 480.168 1265.86 481.608 1267.78 486.514C1269.66 491.308 1273.44 492.61 1277.59 494.078C1285.71 496.959 1293.95 499.634 1301.8 503.159C1309.57 506.645 1312.85 518.262 1311.26 526.163C1309.98 532.506 1312.72 538.655 1318.61 541.255C1320.88 542.253 1322.71 544.183 1324.91 545.386C1328.07 547.121 1329.94 551.174 1334.86 549.839C1340.17 548.397 1345.74 547.329 1351.22 547.185C1359.39 546.971 1367.59 547.861 1375.79 547.977C1379.64 548.031 1383.51 547.071 1387.36 547.114C1393.39 547.181 1399.5 547.206 1405.42 548.178C1411.99 549.256 1418.57 550.901 1424.77 553.271C1427.34 554.255 1430.09 557.492 1430.73 560.185C1431.6 563.891 1427.73 565.673 1424.77 566.996C1414.8 571.453 1404.71 575.673 1394.72 580.099C1393.68 580.56 1392.98 581.795 1392.13 582.671C1393.38 582.997 1394.67 583.691 1395.89 583.582C1399.85 583.227 1403.83 582.816 1407.71 582C1420.04 579.408 1432.58 577.695 1442.92 569.166C1448.18 564.82 1452.76 561.33 1451.22 553.218C1450 546.807 1447.9 542.017 1441.87 538.961C1437.03 536.501 1432.54 533.321 1427.9 530.444C1420.87 526.081 1413.76 522.458 1404.98 522.909C1398.32 523.251 1391.54 522.799 1384.94 521.835C1382.3 521.45 1379.19 519.269 1377.71 516.988C1374.13 511.48 1376.38 503.68 1382.04 500.067C1387.95 496.295 1394.04 492.816 1399.93 489.014C1405.85 485.193 1411.02 480.799 1410.02 472.621C1409.57 468.941 1409.33 465.237 1409 460.543ZM1699 736.543C1703.47 742.949 1707.2 749.621 1709.1 757.373C1711.35 766.55 1709.88 774.109 1702.32 780.337C1698.49 783.502 1695.07 787.225 1691.75 790.945C1690.72 792.087 1690.29 794.054 1690.3 795.641C1690.3 796.113 1692.76 797.076 1694.01 796.956C1699.23 796.454 1704.45 795.787 1709.62 794.861C1713.44 794.177 1717.12 792.591 1720.95 792.133C1727.79 791.316 1733.69 792.868 1738.97 798.204C1744.36 803.658 1752.1 805.478 1759.52 804.858C1771.66 803.844 1781.87 807.257 1791.86 814.019C1797.59 817.893 1804.69 820.284 1811.52 821.829C1819.9 823.726 1828.65 823.929 1837.21 825.081C1843.63 825.944 1849.71 827.398 1854.81 832.169C1860.95 837.913 1863.79 845.345 1866.97 852.679C1868.36 855.879 1870.2 856.839 1872.03 855.197C1874.81 852.698 1877.54 849.992 1880.73 848.124C1889.9 842.752 1890.98 840.572 1888.21 830.72C1887.95 829.802 1888.01 828.779 1888.01 827.805C1887.99 820.251 1887.87 812.692 1888.09 805.145C1888.15 803.243 1889.29 801.346 1890.06 799.5C1891.67 795.664 1894.57 791.9 1894.68 788.039C1894.82 783.494 1889.51 785.053 1886.79 784.585C1881.74 783.718 1876.39 783.537 1871.31 784.196C1864.73 785.05 1858.71 780.146 1857.86 773.554C1856.43 762.478 1852.73 752.139 1845.69 743.129C1841.07 737.231 1838.63 734.729 1843.88 727.821C1847.54 723.011 1852.09 718.886 1856.12 714.348C1857.01 713.347 1858.12 711.718 1857.87 710.679C1856.95 706.846 1846.96 701.539 1843.37 703.385C1838.79 705.746 1833.63 708.3 1830.68 712.241C1823.2 722.253 1816.69 733.004 1810.05 743.619C1806.64 749.079 1803.38 750.437 1797.73 748.065C1790.92 745.204 1784.12 742.286 1777.17 739.788C1767.91 736.458 1761.72 737.165 1758.7 743.176C1755.55 749.446 1753.67 756.497 1752.17 763.41C1751.2 767.918 1749.82 770.407 1745.13 769.962C1740.76 769.547 1736.34 768.819 1732.16 767.535C1729.28 766.652 1726.46 764.891 1728.73 760.753C1731.71 755.343 1734.04 749.538 1737.35 744.361C1740.96 738.74 1740.15 729.483 1731.69 727.986C1730.22 727.727 1728.86 726.77 1727.51 726.038C1720.78 722.394 1719.51 717.235 1723.59 710.899C1724.75 709.098 1725.53 707.046 1726.44 705.092C1727.97 701.854 1726.28 700.826 1723.41 701.073C1714.78 701.818 1708.07 706.828 1701.22 711.405C1699.61 712.479 1698.06 713.938 1697.06 715.572C1692.72 722.645 1694.83 729.224 1699 736.543ZM1152.5 1120.04C1146.51 1113.84 1138.12 1116.2 1130.95 1114.22C1130.88 1114.2 1129.33 1117.11 1129.75 1118.11C1131.57 1122.36 1134.67 1126.18 1135.83 1130.56C1138.08 1139.04 1140.24 1147.73 1140.79 1156.44C1141.63 1169.66 1143.43 1182.51 1147.93 1195.03C1151.99 1206.33 1153.85 1218.38 1160.24 1228.92C1164.23 1235.51 1167.67 1242.48 1170.77 1249.54C1171.8 1251.89 1171.96 1255.33 1167.97 1256.63C1163.24 1258.17 1163.17 1261.59 1165.02 1265.43C1165.9 1267.24 1167.17 1268.87 1167.96 1270.71C1169.36 1273.97 1171.59 1275.48 1175.2 1275.07C1179.04 1274.63 1183.05 1274.89 1186.73 1273.91C1190.84 1272.8 1196.09 1273.78 1198.34 1268.28C1200.66 1262.59 1205.46 1257.11 1205.58 1251.46C1205.84 1239.25 1208.7 1228.07 1213.39 1217.05C1214.41 1214.65 1215.46 1211.56 1214.8 1209.28C1213.35 1204.3 1213.59 1199.52 1213.84 1194.47C1214.16 1187.92 1213.17 1181.32 1213.06 1174.73C1212.98 1170.51 1211.51 1168.11 1207.17 1166.94C1201.39 1165.37 1195.12 1164.06 1190.31 1160.8C1183.2 1155.99 1176.42 1151.13 1167.65 1150.22C1162.02 1149.63 1161.77 1145.89 1160.72 1141.28C1159.1 1134.15 1155.67 1127.43 1152.5 1120.04ZM191.5 1180.04C193.268 1185.14 194.825 1190.33 196.852 1195.33C200.026 1203.15 201.704 1211.2 200.957 1219.6C200.01 1230.27 192.425 1237.83 181.204 1238.09C169.586 1238.36 158.291 1237.45 147.573 1232.31C145.503 1231.32 142.801 1230.88 143.704 1235.87C144.704 1241.39 148.134 1245.56 149.596 1250.47C152.334 1259.66 158.274 1266.55 164.114 1273.42C171.172 1281.74 180.293 1287.58 190.74 1291.02C200.349 1294.17 210.76 1291.08 214.793 1284.21C219.943 1275.45 226.122 1268.42 235.329 1263.96C238.328 1262.51 239.101 1259.74 237.079 1256.59C234.979 1253.31 232.906 1250 231.075 1246.58C225.98 1237.03 220.945 1227.45 216.015 1217.82C206.105 1198.46 209.952 1176.83 206.579 1156.38C204.227 1142.12 206.983 1126.93 210.99 1112.55C211.148 1111.98 211.159 1111.37 211.238 1110.78C210.645 1110.87 209.98 1110.82 209.474 1111.07C208.502 1111.57 207.342 1112.04 206.747 1112.87C201.503 1120.19 194.771 1125.66 186.971 1130.14C180.862 1133.65 178.36 1139.72 180.141 1146.06C183.307 1157.35 187.333 1168.4 191.5 1180.04ZM829 1194.54C828.529 1195.68 828.098 1196.84 827.582 1197.95C823.063 1207.74 817.519 1217.19 814.267 1227.38C810.552 1239.01 807.128 1250.71 801.73 1261.66C798.801 1267.61 797.777 1272.66 802.909 1277.95C805.119 1280.23 806.1 1283.65 808.069 1286.23C809.866 1288.58 811.436 1291.18 815.367 1291.14C833.847 1290.93 852.331 1291.17 870.81 1290.94C874.473 1290.89 878.884 1291.04 880.123 1285.72C880.375 1284.64 882.156 1283.85 883.318 1283.06C888.042 1279.82 890.628 1274.53 888.851 1271.42C887.306 1268.72 885.327 1266.23 884.05 1263.41C877.713 1249.45 868.963 1237.09 858.419 1226.12C849.16 1216.49 843.521 1205.32 840.872 1192.36C840.607 1191.07 838.726 1189.59 837.301 1189.15C833.061 1187.83 831.336 1191.16 829 1194.54ZM954.5 1146.04C951.851 1148.03 948.982 1149.78 946.609 1152.05C943.575 1154.95 940.612 1158.04 938.225 1161.47C935.77 1165 932.175 1169.15 932.379 1172.84C932.842 1181.21 935.585 1189.43 936.863 1197.8C937.307 1200.71 939.175 1204.32 935.655 1206.88C929.924 1211.05 930.312 1216.44 931.793 1222.58C932.429 1225.22 934.008 1229.62 928.288 1230.56C927.235 1230.74 925.948 1234.43 926.161 1236.35C926.657 1240.82 928.017 1245.19 928.971 1249.62C929.056 1250.02 928.874 1250.69 928.575 1250.92C922.801 1255.33 926.224 1261.24 926.059 1266.54C926.044 1267.02 926.855 1267.54 927.282 1268.04C927.855 1267.52 928.863 1267.03 928.914 1266.46C929.041 1265.04 928.715 1263.58 928.6 1262.14C928.423 1259.91 928.251 1257.67 928.166 1255.43C928.162 1255.32 929.374 1255.02 929.391 1255.06C930.303 1257.34 931.214 1259.63 931.962 1261.96C932.204 1262.72 932.033 1263.62 931.995 1264.45C931.671 1271.53 931.374 1278.61 930.984 1285.69C930.76 1289.76 932.676 1291.29 936.61 1291.08C939.932 1290.9 943.275 1290.95 946.602 1291.07C949.977 1291.19 952.164 1289.82 953.85 1286.85C954.741 1285.28 956.513 1284.04 958.148 1283.11C959.862 1282.14 961.925 1281.8 963.769 1281.03C967.737 1279.36 968.21 1275.94 967.999 1272.22C967.808 1268.85 965.636 1268.47 962.745 1267.91C956.132 1266.62 951.698 1258.2 952.976 1251.47C954.31 1244.45 955.452 1237.34 955.885 1230.21C956.38 1222.08 955.511 1213.86 956.176 1205.75C956.601 1200.57 958.134 1195.28 960.24 1190.5C963.478 1183.17 968.377 1176.52 971.186 1169.06C973.748 1162.25 975.272 1154.8 975.763 1147.54C976.213 1140.89 974.77 1134.1 973.932 1127.4C973.702 1125.56 972.651 1123.83 971.977 1122.04C970.419 1123.44 967.682 1124.7 967.5 1126.26C966.495 1134.88 960.988 1140.31 954.5 1146.04ZM278 1108.54C277.369 1112.25 275.755 1116.11 276.331 1119.61C277.247 1125.18 279.853 1130.44 281.337 1135.94C284.048 1145.99 286.505 1156.11 288.941 1166.23C289.22 1167.39 289.131 1169.1 288.455 1169.95C284.98 1174.36 286.913 1178.6 288.374 1182.95C289.064 1185.01 289.113 1187.34 290.065 1189.24C293.115 1195.31 296.211 1201.39 299.817 1207.13C300.984 1208.99 302.952 1210.18 304.209 1205.81C307.201 1195.42 311.573 1185.53 320.748 1178.72C321.715 1178.01 322.631 1176.82 322.94 1175.68C325.054 1167.88 327.058 1160.06 328.981 1152.22C330.399 1146.43 329.578 1145.57 323.657 1145C318.539 1144.51 314.009 1142.43 312.109 1137.38C310.624 1133.42 308.959 1130.8 304.397 1129.62C301.593 1128.89 298.986 1125.98 297.092 1123.44C292.681 1117.55 288.824 1111.24 284.598 1105.2C283.079 1103.03 281.147 1101.15 279.403 1099.14C278.935 1101.94 278.468 1104.74 278 1108.54ZM1061 1112.54C1059.61 1111.94 1058.21 1111.33 1056.82 1110.72C1057.1 1112.21 1057.35 1113.71 1057.68 1115.19C1057.74 1115.46 1058.2 1115.62 1058.35 1115.91C1060.48 1120.02 1062.92 1124.01 1064.57 1128.31C1065.37 1130.39 1066.6 1134.26 1063 1134.81C1059.97 1135.26 1055.72 1134.66 1053.59 1132.75C1048.56 1128.24 1044.5 1122.65 1039.98 1117.54C1036.62 1113.75 1033.35 1109.84 1029.65 1106.39C1028.2 1105.03 1025.71 1104.79 1023.68 1104.04C1023.46 1105.91 1022.69 1107.9 1023.09 1109.63C1024.78 1116.88 1026.54 1124.14 1028.8 1131.23C1030.44 1136.34 1033.84 1141 1034.8 1146.17C1036.79 1156.82 1037.47 1167.71 1039.08 1178.44C1039.98 1184.45 1040.94 1190.63 1043.2 1196.19C1045.52 1201.89 1049.45 1206.93 1052.72 1212.23C1053.14 1212.91 1053.81 1213.44 1054.36 1214.04C1054.54 1213.17 1054.8 1212.31 1054.87 1211.43C1055.04 1209.4 1054.32 1206.73 1055.35 1205.42C1062.02 1197.01 1064.56 1187.55 1064.11 1176.98C1064.02 1174.79 1064.69 1171.91 1066.12 1170.43C1070.47 1165.95 1071.81 1160.85 1071.01 1154.9C1070.95 1154.43 1070.93 1153.87 1071.12 1153.46C1074.25 1146.42 1074.51 1139.11 1074.15 1131.49C1073.77 1123.25 1072.52 1116.25 1063.09 1114.02C1062.52 1113.88 1062.03 1113.38 1061 1112.54ZM688.5 1038.04C697.208 1045.97 701.887 1055.8 703.118 1067.52C703.466 1070.83 704.425 1075 709.532 1074.01C719.521 1072.07 728.353 1067.74 733.892 1058.95C739 1050.84 743.24 1042.18 747.775 1033.72C748.714 1031.97 749.736 1030.04 749.84 1028.14C749.913 1026.82 748.603 1024.33 747.706 1024.23C743.754 1023.8 739.693 1023.7 735.734 1024.1C720.911 1025.62 706.109 1027.34 691.309 1029.07C688.517 1029.4 685.768 1030.09 683 1030.62C684.667 1032.92 686.333 1035.23 688.5 1038.04ZM984 1288.54C985.82 1289.38 987.632 1290.91 989.46 1290.93C1006.44 1291.12 1023.44 1291.38 1040.41 1290.9C1048.56 1290.67 1053.31 1285.95 1049.8 1276.41C1049.09 1274.48 1045.27 1271.83 1043.85 1272.32C1036.2 1274.95 1028.58 1273.26 1021.02 1272.91C1014.89 1272.63 1008.81 1271.09 1002.69 1270.27C998.548 1269.71 994.371 1269.21 990.2 1269.12C986.679 1269.04 982.773 1272.8 982.998 1275.47C983.338 1279.49 983.667 1283.52 984 1288.54ZM1149 1273.54C1148 1271.13 1146.69 1268.8 1146.07 1266.29C1145.05 1262.19 1142.36 1261.45 1138.84 1262.08C1137.18 1262.37 1135.61 1263.1 1133.98 1263.56C1124.29 1266.28 1114.63 1268.46 1104.4 1266.14C1098.46 1264.8 1097.4 1266.43 1098.98 1272.55C1100.07 1276.76 1101.31 1280.98 1101.91 1285.27C1102.46 1289.25 1104.29 1291.08 1108.24 1291.05C1114.05 1291.01 1119.98 1290.34 1125.66 1291.19C1136.33 1292.8 1144.12 1284.57 1149 1273.54ZM1247 1220.54C1248.67 1227.34 1250.27 1234.15 1252.05 1240.92C1252.44 1242.38 1253.51 1244.83 1254.26 1244.82C1256.32 1244.81 1259.03 1244.37 1260.33 1243C1266.74 1236.26 1267.93 1228.01 1266.61 1219.05C1266.19 1216.19 1266.2 1212.93 1267.19 1210.28C1268.08 1207.9 1267.45 1206.86 1265.96 1205.48C1258.97 1199.02 1253.26 1191.6 1248.93 1183.1C1248.29 1181.83 1246.71 1181.05 1245.56 1180.04C1245.04 1181.65 1243.74 1183.47 1244.12 1184.82C1247.32 1196.23 1247.12 1207.88 1247 1220.54ZM794.5 1193.04C794.333 1194.97 794.107 1196.9 794.011 1198.83C793.757 1203.95 793.538 1209.08 793.373 1214.21C793.358 1214.67 793.829 1215.15 794.074 1215.62C794.716 1215.17 795.798 1214.82 795.928 1214.25C796.738 1210.73 797.483 1207.19 797.966 1203.61C798.758 1197.74 799.045 1191.8 800.082 1185.98C801.095 1180.31 802.736 1174.6 799.914 1169.19C797.222 1164.03 798.133 1159.17 800.233 1154.42C802.148 1150.09 800.534 1147.58 797.217 1144.97C794.221 1142.61 791.549 1139.77 789.052 1136.87C786.935 1134.4 783.904 1134.26 781.988 1136.91C780.31 1139.23 778.57 1141.51 776.782 1143.75C771.508 1150.34 772.082 1156.37 778.727 1160.13C780.814 1161.31 783.468 1161.66 785.917 1162C793.088 1163.01 795 1165.03 795 1172.07C795 1178.89 795 1185.72 794.5 1193.04ZM790 1224.54C790.232 1222.98 794.56 1222.54 791.655 1220.48C789.805 1219.17 786.809 1219.09 784.33 1219.11C773.389 1219.17 762.616 1224.31 751.483 1220.17C750.862 1219.94 749.539 1221.08 748.837 1221.85C748.575 1222.14 748.95 1223.37 749.382 1223.87C756.028 1231.6 762.612 1239.38 769.464 1246.93C773.804 1251.7 775.999 1251.13 779.029 1245.41C782.572 1238.73 786.333 1232.16 790 1224.54ZM256 1224.54C260.124 1229.33 264.041 1234.33 268.49 1238.8C269.943 1240.26 272.862 1241.09 274.97 1240.87C278.29 1240.52 281.49 1239.04 284.744 1238.05C287.556 1237.19 287.673 1235.87 285.506 1234.04C282.782 1231.73 280.182 1229.27 277.387 1227.06C268.01 1219.64 258.931 1211.97 252.902 1201.33C252.247 1200.17 250.235 1199.79 248.852 1199.04C248.235 1200.22 247.16 1201.36 247.073 1202.57C246.469 1211.03 249.378 1218.19 256 1224.54ZM602 1053.54C603.333 1050.93 605.145 1048.44 605.86 1045.67C606.518 1043.12 606.644 1040.05 605.836 1037.59C604.747 1034.28 601.278 1034.85 598.536 1035.08C592.137 1035.62 585.75 1036.32 579.375 1037.09C578.208 1037.24 576.498 1037.8 576.175 1038.62C575.851 1039.44 576.716 1041.01 577.458 1041.93C580.903 1046.2 584.218 1050.63 588.087 1054.5C593.048 1059.45 596.16 1062.04 602 1053.54ZM192 1070.54C191.333 1071.93 190.45 1073.26 190.038 1074.72C188.268 1080.99 186.596 1087.28 184.998 1093.6C184.756 1094.56 185.093 1095.67 185.162 1096.71C186.299 1096.46 187.711 1096.56 188.522 1095.91C191.195 1093.77 193.693 1091.4 196.18 1089.03C201.72 1083.77 209.45 1080.58 212.024 1072.49C212.522 1070.93 212.77 1069.28 213.134 1067.68C211.742 1068.31 210.362 1068.98 208.951 1069.57C208.385 1069.81 207.753 1070.02 207.15 1070.02C202.267 1070.06 197.383 1070.04 192 1070.54ZM1068 1273.54C1067.33 1278.59 1066.62 1283.64 1066.05 1288.7C1065.97 1289.44 1066.63 1290.26 1066.94 1291.04C1067.63 1290.44 1068.41 1289.91 1068.98 1289.21C1071.31 1286.4 1073.15 1282.98 1075.96 1280.79C1081.59 1276.38 1080.86 1267.64 1077.93 1261.77C1076.15 1258.2 1070.49 1258.24 1064.52 1260.91C1060.95 1262.52 1061.3 1264.27 1063.24 1266.82C1064.76 1268.82 1066.09 1270.96 1068 1273.54ZM1230.5 1256.04C1232.74 1254.93 1233.82 1253.6 1232.46 1250.89C1231.3 1248.57 1230.89 1245.88 1229.95 1243.44C1229.6 1242.53 1228.67 1241.84 1228 1241.04C1227.33 1241.83 1226.44 1242.53 1226.04 1243.43C1224.6 1246.67 1223.28 1249.95 1222.03 1253.26C1221.53 1254.56 1221.12 1255.97 1221.08 1257.33C1221.06 1258.15 1221.65 1259.31 1222.33 1259.69C1222.8 1259.96 1223.91 1259.26 1224.67 1258.85C1226.3 1257.96 1227.89 1256.98 1230.5 1256.04ZM899.5 1289.04C905.045 1289.71 910.578 1290.61 916.142 1290.91C917.954 1291.01 919.949 1289.73 921.612 1288.68C921.896 1288.51 921.192 1286.14 920.475 1285.11C919.047 1283.07 917.398 1282.72 914.656 1283.66C909.815 1285.33 904.612 1285.93 899.596 1287.12C899.106 1287.23 898.859 1288.38 899.5 1289.04ZM1059 1226.54C1060.28 1231.49 1061.49 1236.45 1062.9 1241.35C1063.11 1242.06 1064.3 1242.49 1065.03 1243.04C1065.36 1242.27 1065.91 1241.52 1065.96 1240.73C1066.13 1237.94 1065.43 1234.86 1066.41 1232.44C1067.22 1230.44 1069.18 1229.09 1066.64 1227.21C1064.5 1225.63 1062.34 1223.57 1059 1226.54Z" fill="#960000"/>
</svg>
